<?xml version="1.0" encoding="utf-8"?>
<!-- Generator: Adobe Illustrator 22.0.1, SVG Export Plug-In . SVG Version: 6.00 Build 0)  -->
<svg version="1.1" id="Layer_1" xmlns="http://www.w3.org/2000/svg" xmlns:xlink="http://www.w3.org/1999/xlink" x="0px" y="0px"
	 viewBox="0 0 217.5 91.6" style="enable-background:new 0 0 217.5 91.6;" xml:space="preserve">
<style type="text/css">
	.st0{fill:#352984;}
	.st1{fill:#C1338A;}
	.st2{fill:#7FAD2A;}
	.st3{fill:#C1338B;}
	.st4{fill:#312783;}
</style>
<g>
	<g>
		<g>
			<path class="st0" d="M33.6,18.5h-7.8l-2.4,5.2h-4.1L30.4,0.1h4.5l3.2,23.6h-3.8L33.6,18.5z M33.1,14.5L32,5l-4.7,9.5H33.1z"/>
			<path class="st0" d="M43.2,6.6h3.6l-0.6,3.3c1.3-2.5,2.8-3.7,4.3-3.7c0.6,0,1.1,0.2,1.8,0.5l-1.5,3.8c-0.3-0.2-0.7-0.2-1.1-0.2
				c-0.7,0-1.3,0.3-2,0.9s-1.2,1.4-1.6,2.4s-0.8,2.6-1.1,4.8l-0.9,5.4h-3.8L43.2,6.6z"/>
			<path class="st0" d="M54.2,6.6h3.6l-0.4,2.2c0.9-0.9,1.8-1.6,2.5-2s1.6-0.6,2.5-0.6c1.2,0,2.1,0.4,2.8,1.2c0.7,0.8,1,1.9,1,3.2
				c0,0.6-0.1,1.7-0.4,3.4l-1.7,9.7h-3.8L62,14c0.2-1.5,0.4-2.3,0.4-2.6c0-0.6-0.1-1.1-0.4-1.4s-0.7-0.5-1.2-0.5
				c-0.6,0-1.2,0.3-1.9,0.9s-1.2,1.3-1.6,2.3c-0.3,0.7-0.6,2-1,4.1l-1.2,7h-3.8L54.2,6.6z"/>
			<path class="st0" d="M71.8,23.7H68l4.1-23.6h3.8l-1.5,8.4c0.9-0.8,1.7-1.4,2.4-1.8s1.6-0.5,2.4-0.5c1.2,0,2.1,0.4,2.7,1.2
				c0.7,0.8,1,1.8,1,3.1c0,0.7-0.1,1.8-0.4,3.2l-1.7,10H77l1.8-10.2c0.2-1.1,0.3-1.8,0.3-2.1c0-0.6-0.1-1-0.4-1.4
				c-0.3-0.3-0.7-0.5-1.2-0.5c-0.6,0-1.3,0.3-1.8,0.8c-0.8,0.7-1.4,1.6-1.8,2.6c-0.2,0.6-0.5,1.9-0.9,4L71.8,23.7z"/>
			<path class="st0" d="M98.4,16.6h-9.6c0,0.2,0,0.3,0,0.4c0,1.1,0.3,2.1,0.8,2.8s1.2,1,2,1c1.3,0,2.3-0.8,3-2.4l3.4,0.7
				c-0.7,1.7-1.6,2.9-2.7,3.7c-1.1,0.8-2.4,1.2-3.8,1.2c-1.9,0-3.5-0.7-4.7-2.2S85,18.4,85,16c0-2.3,0.5-4.4,1.6-6.3
				C88.1,7.2,90.2,6,92.9,6C94.6,6,96,6.6,97,7.9s1.5,3.1,1.5,5.4C98.7,14.7,98.6,15.7,98.4,16.6z M95.2,13.7c0-0.2,0-0.4,0-0.5
				c0-1.3-0.2-2.2-0.7-2.9c-0.5-0.6-1.1-1-1.9-1s-1.5,0.4-2.1,1.1s-1.1,1.8-1.3,3.2L95.2,13.7L95.2,13.7z"/>
			<path class="st0" d="M102.7,6.6h3.6l-0.4,2.1c1.4-1.7,2.9-2.5,4.4-2.5c1.1,0,1.9,0.3,2.5,0.8s0.9,1.3,1.1,2.2
				c0.5-0.9,1.2-1.6,2.1-2.2s1.9-0.9,2.9-0.9c1.1,0,2,0.4,2.6,1.1s0.9,1.7,0.9,2.9c0,0.6-0.1,1.6-0.4,3.1l-1.8,10.5h-3.8l1.8-10.5
				c0.2-1.3,0.3-2.1,0.3-2.2c0-0.5-0.1-0.8-0.4-1.1s-0.6-0.4-1.1-0.4c-1,0-1.8,0.6-2.6,1.8c-0.5,0.9-1,2.4-1.4,4.6l-1.4,7.8h-3.5
				l1.8-10.3c0.2-1.2,0.3-2,0.3-2.3c0-0.5-0.1-0.8-0.4-1.1s-0.6-0.4-1.1-0.4c-0.4,0-0.9,0.2-1.3,0.5s-0.8,0.7-1.2,1.2
				s-0.6,1.2-0.9,2c-0.1,0.4-0.3,1.3-0.5,2.6l-1.4,7.9h-3.8L102.7,6.6z"/>
			<path class="st0" d="M123.7,18.9l3.7-0.7c0.3,0.9,0.7,1.6,1.2,2s1.2,0.6,2,0.6c0.9,0,1.6-0.2,2.1-0.7c0.4-0.3,0.5-0.7,0.5-1.2
				c0-0.3-0.1-0.6-0.3-0.8c-0.2-0.2-0.7-0.5-1.6-0.9c-2.3-0.9-3.8-1.7-4.3-2.2c-0.9-0.8-1.3-1.9-1.3-3.3s0.4-2.5,1.3-3.5
				c1.2-1.4,2.9-2,5.2-2c1.8,0,3.2,0.4,4.1,1.2c0.9,0.8,1.5,1.9,1.8,3.3l-3.5,0.7c-0.2-0.6-0.5-1.1-0.9-1.4
				c-0.6-0.4-1.3-0.6-2.1-0.6s-1.4,0.2-1.7,0.5c-0.4,0.3-0.5,0.7-0.5,1.1s0.2,0.8,0.5,1.1c0.2,0.2,0.9,0.5,2.2,0.9
				c1.9,0.7,3.1,1.3,3.8,1.9c0.9,0.9,1.3,2,1.3,3.2c0,1.6-0.6,3-1.7,4.2s-2.7,1.8-4.8,1.8c-2.1,0-3.6-0.5-4.8-1.4
				C124.9,21.8,124.1,20.5,123.7,18.9z"/>
			<path class="st0" d="M153.2,16.6h-9.6c0,0.2,0,0.3,0,0.4c0,1.1,0.3,2.1,0.8,2.8s1.2,1,2,1c1.3,0,2.3-0.8,3-2.4l3.4,0.7
				c-0.7,1.7-1.6,2.9-2.7,3.7c-1.1,0.8-2.4,1.2-3.8,1.2c-1.9,0-3.5-0.7-4.7-2.2s-1.8-3.4-1.8-5.8c0-2.3,0.5-4.4,1.6-6.3
				c1.5-2.5,3.6-3.7,6.3-3.7c1.7,0,3.1,0.6,4.1,1.9s1.5,3.1,1.5,5.4C153.5,14.7,153.4,15.7,153.2,16.6z M150,13.7c0-0.2,0-0.4,0-0.5
				c0-1.3-0.2-2.2-0.7-2.9s-1.1-1-1.9-1s-1.5,0.4-2.1,1.1s-1.1,1.8-1.3,3.2L150,13.7L150,13.7z"/>
		</g>
	</g>
	<g>
		<g>
			<path class="st1" d="M11.5,46.4c0-1.4,0.2-2.9,0.5-4.4c0.5-2.1,1.1-3.9,2.1-5.4s2.1-2.7,3.5-3.6s3-1.3,4.8-1.3
				c2.4,0,4.4,0.9,5.9,2.7c1.5,1.8,2.2,4.2,2.2,7.2c0,2.5-0.5,4.9-1.5,7.2c-1,2.3-2.3,4.1-4,5.4s-3.6,1.9-5.7,1.9
				c-1.8,0-3.4-0.5-4.6-1.5s-2.1-2.2-2.6-3.7S11.5,47.9,11.5,46.4z M15.5,46.3c0,1.6,0.4,3,1.2,4.1s1.9,1.6,3.2,1.6
				c1.1,0,2.1-0.4,3.1-1.3s1.8-2.2,2.5-3.9c0.7-1.8,1-3.5,1-5.1c0-1.9-0.4-3.3-1.2-4.4c-0.8-1.1-1.9-1.6-3.2-1.6
				c-2,0-3.6,1.1-4.8,3.3C16.1,41.2,15.5,43.7,15.5,46.3z"/>
			<path class="st1" d="M34.4,38.6h3.8l-1.8,10.1c-0.2,1.2-0.3,2-0.3,2.3c0,0.5,0.2,0.9,0.5,1.3s0.7,0.5,1.2,0.5
				c0.3,0,0.7-0.1,1-0.2c0.3-0.2,0.7-0.4,1-0.7c0.3-0.3,0.7-0.7,0.9-1.1c0.3-0.4,0.5-0.9,0.8-1.6c0.2-0.5,0.4-1.3,0.5-2.4l1.4-8.2
				h3.8l-3,17.1h-3.6l0.4-2.3c-1.6,1.8-3.3,2.7-5.1,2.7c-1.2,0-2.1-0.4-2.8-1.2c-0.7-0.8-1-1.9-1-3.2c0-0.6,0.2-1.8,0.5-3.5
				L34.4,38.6z"/>
			<path class="st1" d="M61.4,55.7h-3.6l0.3-1.9c-0.7,0.8-1.4,1.4-2.1,1.7c-0.7,0.3-1.4,0.5-2.3,0.5c-1.5,0-2.7-0.6-3.6-1.8
				c-0.9-1.2-1.4-3-1.4-5.4c0-2.7,0.6-5.2,1.9-7.4c1.3-2.2,3-3.3,5.1-3.3c1.9,0,3.3,0.9,4.3,2.7l1.5-8.8h3.8L61.4,55.7z M52.5,48.7
				c0,1.2,0.3,2.2,0.8,2.9s1.1,1,1.9,1c0.7,0,1.3-0.3,1.9-0.9s1.1-1.5,1.4-2.6s0.5-2.3,0.5-3.4c0-1.2-0.3-2.2-0.8-3
				c-0.6-0.8-1.2-1.1-1.9-1.1c-1.1,0-2,0.8-2.8,2.3S52.5,47,52.5,48.7z"/>
			<path class="st1" d="M78.8,48.6h-9.6c0,0.2,0,0.3,0,0.4c0,1.1,0.3,2.1,0.8,2.8s1.2,1,2,1c1.3,0,2.3-0.8,3-2.4l3.4,0.7
				c-0.7,1.7-1.6,2.9-2.7,3.7c-1.1,0.8-2.4,1.2-3.8,1.2c-1.9,0-3.5-0.7-4.7-2.2s-1.8-3.4-1.8-5.8c0-2.3,0.5-4.4,1.6-6.3
				c1.5-2.5,3.6-3.7,6.3-3.7c1.7,0,3.1,0.6,4.1,1.9s1.5,3.1,1.5,5.4C79.1,46.7,79,47.7,78.8,48.6z M75.6,45.7c0-0.2,0-0.4,0-0.5
				c0-1.3-0.2-2.2-0.7-2.9c-0.5-0.6-1.1-1-1.9-1s-1.5,0.4-2.1,1.1s-1.1,1.8-1.3,3.2L75.6,45.7L75.6,45.7z"/>
			<path class="st1" d="M83,38.6h3.6L86,41.9c1.3-2.5,2.8-3.7,4.3-3.7c0.6,0,1.1,0.2,1.8,0.5l-1.5,3.8c-0.3-0.2-0.7-0.2-1.1-0.2
				c-0.7,0-1.3,0.3-2,0.9s-1.2,1.4-1.6,2.4s-0.8,2.6-1.1,4.8l-0.9,5.4h-3.8L83,38.6z"/>
			<path class="st1" d="M104.7,48.6h-9.6c0,0.2,0,0.3,0,0.4c0,1.1,0.3,2.1,0.8,2.8s1.2,1,2,1c1.3,0,2.3-0.8,3-2.4l3.4,0.7
				c-0.7,1.7-1.6,2.9-2.7,3.7c-1.1,0.8-2.4,1.2-3.8,1.2c-1.9,0-3.5-0.7-4.7-2.2s-1.8-3.4-1.8-5.8c0-2.3,0.5-4.4,1.6-6.3
				c1.5-2.5,3.6-3.7,6.3-3.7c1.7,0,3.1,0.6,4.1,1.9s1.5,3.1,1.5,5.4C105,46.7,104.9,47.7,104.7,48.6z M101.4,45.7c0-0.2,0-0.4,0-0.5
				c0-1.3-0.2-2.2-0.7-2.9s-1.1-1-1.9-1s-1.5,0.4-2.1,1.1s-1.1,1.8-1.3,3.2L101.4,45.7L101.4,45.7z"/>
			<path class="st1" d="M109.1,38.6h3.6l-0.4,2.2c0.9-0.9,1.8-1.6,2.5-2s1.6-0.6,2.5-0.6c1.2,0,2.1,0.4,2.8,1.2c0.7,0.8,1,1.9,1,3.2
				c0,0.6-0.1,1.7-0.4,3.4l-1.7,9.7h-3.8l1.7-9.7c0.2-1.5,0.4-2.3,0.4-2.6c0-0.6-0.1-1.1-0.4-1.4s-0.7-0.5-1.2-0.5
				c-0.6,0-1.2,0.3-1.9,0.9c-0.7,0.6-1.2,1.3-1.6,2.3c-0.3,0.7-0.6,2-1,4.1l-1.2,7h-3.9L109.1,38.6z"/>
		</g>
	</g>
	<g>
		<g>
			<path class="st2" d="M4,84.7H0l4.1-23.6h8c1.4,0,2.5,0.2,3.4,0.6s1.5,1.1,2,2s0.7,2,0.7,3.3c0,1.2-0.2,2.4-0.6,3.5
				s-0.9,2-1.4,2.7c-0.6,0.7-1.2,1.2-1.8,1.5c-0.6,0.3-1.5,0.6-2.6,0.8c-0.6,0.1-1.8,0.2-3.6,0.2H5.6L4,84.7z M6.2,71.8h1.2
				c2.1,0,3.6-0.2,4.3-0.5s1.3-0.8,1.7-1.5s0.6-1.5,0.6-2.3c0-0.6-0.1-1-0.3-1.4s-0.5-0.6-0.9-0.8c-0.4-0.2-1.2-0.2-2.5-0.2H7.4
				L6.2,71.8z"/>
			<path class="st2" d="M23.6,72.4L19.9,72c0.4-1.5,1.2-2.7,2.2-3.6c1.1-0.9,2.5-1.3,4.2-1.3c1.8,0,3.2,0.4,4.1,1.3s1.3,2,1.3,3.2
				c0,0.5,0,1.1-0.1,1.6s-0.3,2.1-0.8,4.6c-0.4,2-0.6,3.5-0.6,4.3c0,0.7,0.1,1.5,0.3,2.4h-3.7c-0.2-0.6-0.2-1.3-0.3-1.9
				c-0.6,0.8-1.2,1.3-1.9,1.7c-0.7,0.4-1.5,0.6-2.2,0.6c-1.2,0-2.1-0.5-2.9-1.4s-1.1-2.1-1.1-3.6c0-1.6,0.4-2.9,1.3-3.9
				c0.8-1,2.3-1.6,4.5-1.8c1.8-0.2,3-0.4,3.7-0.7c0.2-0.6,0.2-1.2,0.2-1.5c0-0.5-0.2-0.9-0.5-1.2c-0.3-0.3-0.8-0.5-1.5-0.5
				s-1.2,0.2-1.6,0.5C24,71.3,23.8,71.8,23.6,72.4z M27.3,76.7c-0.2,0.1-0.5,0.1-0.9,0.2c-1.9,0.3-3.2,0.7-3.8,1.2
				C22.2,78.5,22,79,22,79.7c0,0.5,0.2,1,0.5,1.4s0.7,0.6,1.3,0.6c0.6,0,1.1-0.2,1.6-0.5s0.9-0.8,1.1-1.3c0.3-0.5,0.5-1.4,0.7-2.5
				L27.3,76.7z"/>
			<path class="st2" d="M36.2,67.6h3.6l-0.6,3.3c1.3-2.5,2.8-3.7,4.3-3.7c0.6,0,1.1,0.2,1.8,0.5l-1.5,3.8c-0.3-0.2-0.7-0.2-1.1-0.2
				c-0.7,0-1.3,0.3-2,0.9s-1.2,1.4-1.6,2.4s-0.8,2.6-1.1,4.8l-0.9,5.4h-3.8L36.2,67.6z"/>
			<path class="st2" d="M45.1,71l0.6-3.4h1.9l0.5-2.7l4.4-3.2l-1,5.9h2.3L53.2,71h-2.4l-1.2,7.2c-0.2,1.3-0.3,2-0.3,2.2
				c0,0.4,0.1,0.6,0.3,0.8c0.2,0.2,0.5,0.3,1,0.3c0.2,0,0.6,0,1.3-0.1l-0.6,3.4C50.6,85,50,85,49.3,85c-1.4,0-2.3-0.3-3-0.9
				s-0.9-1.5-0.9-2.6c0-0.5,0.2-1.7,0.5-3.6l1.2-6.9L45.1,71L45.1,71z"/>
			<path class="st2" d="M56.2,67.6H60l-3,17.1h-3.8L56.2,67.6z M57.3,61.1h3.8l-0.7,4.2h-3.8L57.3,61.1z"/>
			<path class="st2" d="M63.8,67.6h3.9l-2.5,14.5c-0.7,4.1-1.3,6.6-1.8,7.5c-0.8,1.4-2,2-3.7,2c-1.1,0-2-0.2-2.9-0.5l0.6-3.8
				c0.6,0.2,1.1,0.3,1.6,0.3s0.9-0.2,1.2-0.7c0.3-0.5,0.7-2.2,1.2-5.1L63.8,67.6z M65,61.1h3.9l-0.7,4.2h-3.9L65,61.1z"/>
		</g>
	</g>
	<polygon class="st3" points="179.9,91.6 164.1,91.6 201.7,0 217.5,0 	"/>
	<polygon class="st2" points="161,91.6 145.2,91.6 182.9,0 198.6,0 	"/>
	<polygon class="st4" points="142.1,91.6 126.3,91.6 164,0 179.7,0 	"/>
</g>
</svg>
