<?xml version="1.0" encoding="utf-8"?>
<!-- Generator: Adobe Illustrator 22.0.1, SVG Export Plug-In . SVG Version: 6.00 Build 0)  -->
<svg version="1.1" id="Layer_1" xmlns="http://www.w3.org/2000/svg" xmlns:xlink="http://www.w3.org/1999/xlink" x="0px" y="0px"
	 viewBox="0 0 408.4 185.5" style="enable-background:new 0 0 408.4 185.5;" xml:space="preserve">
<style type="text/css">
	.st0{fill:none;stroke:#A71D49;stroke-width:3;stroke-miterlimit:10;}
	.st1{fill:#A7204A;}
	.st2{fill:#595A5C;}
</style>
<g>
	<line class="st0" x1="127.7" y1="10.1" x2="127.7" y2="78.5"/>
	<line class="st0" x1="170.7" y1="12.8" x2="170.7" y2="72.8"/>
	<line class="st0" x1="211.7" y1="33.8" x2="211.7" y2="74.6"/>
	<line class="st0" x1="63.4" y1="45.8" x2="63.4" y2="103.1"/>
	<line class="st0" x1="40.4" y1="74.6" x2="40.4" y2="116.8"/>
	<line class="st0" x1="93.4" y1="21.5" x2="93.4" y2="88.8"/>
	<path class="st1" d="M15,141.2c0,0,17.3-137.4,112.7-141.1C217.7-3.4,265.9,91,265.9,91S211.2,5.2,127.7,12.8
		C50.7,19.8,15,141.2,15,141.2z"/>
	<path class="st2" d="M0,168.5c15-51.7,135-147,292-65.3C86.4,36.5,10.7,185.5,10.7,185.5S35.4,111.2,129,85.2
		C40.7,100.1,0,168.5,0,168.5z"/>
	<path class="st2" d="M104.4,117.9h4.4l12.2,25.9h-5.8l-2.6-5.9h-12.3l-2.6,5.9h-5.6L104.4,117.9z M110.8,133.9l-4.4-10.5l-4.4,10.5
		H110.8z"/>
	<path class="st2" d="M123.5,126.2h4.6v2.9h0.1c0.5-1,1.3-1.9,2.2-2.5c1-0.6,2.1-1,3.4-1c0.2,0,0.4,0,0.6,0s0.4,0,0.6,0.1v4
		c-0.3-0.1-0.6-0.1-0.8-0.1c-0.2,0-0.4,0-0.7,0c-1.1,0-2,0.2-2.6,0.5c-0.7,0.4-1.2,0.8-1.6,1.3s-0.6,1-0.8,1.6
		c-0.1,0.5-0.2,1-0.2,1.3v9.4h-4.8L123.5,126.2L123.5,126.2z"/>
	<path class="st2" d="M138,126.2h4.6v2.8h0.1c0.4-0.9,1.2-1.6,2.2-2.3c1.1-0.7,2.3-1,3.7-1c1.3,0,2.3,0.2,3.2,0.6
		c0.9,0.4,1.6,0.9,2.2,1.6s1,1.4,1.3,2.3s0.4,1.7,0.4,2.6v11h-4.8v-9.7c0-0.5,0-1-0.1-1.6s-0.3-1.1-0.5-1.5
		c-0.3-0.4-0.6-0.8-1.1-1.1c-0.5-0.3-1.1-0.4-1.9-0.4s-1.4,0.1-2,0.4s-1,0.6-1.4,1.1c-0.4,0.4-0.6,0.9-0.8,1.5
		c-0.2,0.6-0.3,1.2-0.3,1.7v9.6H138L138,126.2L138,126.2z"/>
	<path class="st2" d="M174,125.7c1.3,0,2.3,0.2,3.2,0.6c0.9,0.4,1.6,0.9,2.2,1.6s1,1.4,1.3,2.3s0.4,1.7,0.4,2.6v11h-4.8v-9.6
		c0-0.5,0-1-0.1-1.6c-0.1-0.5-0.2-1-0.5-1.5s-0.6-0.8-1.1-1.1c-0.5-0.3-1.1-0.4-1.9-0.4s-1.4,0.1-2,0.4s-1,0.6-1.4,1.1
		s-0.7,1-0.8,1.5c-0.2,0.6-0.3,1.1-0.3,1.7v9.6h-4.8v-27.6h4.8v12.5h0.1c0.2-0.4,0.5-0.7,0.8-1.1c0.4-0.4,0.8-0.7,1.3-0.9
		c0.5-0.3,1-0.5,1.6-0.7C172.6,125.8,173.3,125.7,174,125.7z"/>
	<path class="st2" d="M205,135.2c0,0.2,0,0.4,0,0.6s0,0.4,0,0.6h-14.6c0.1,0.6,0.2,1.2,0.5,1.7s0.7,1,1.2,1.4s1.1,0.7,1.7,0.9
		c0.6,0.2,1.3,0.3,2,0.3c1.2,0,2.2-0.2,3-0.6s1.5-1,2-1.7l3.2,2.3c-1.9,2.3-4.6,3.5-8.2,3.5c-1.5,0-2.9-0.2-4.1-0.6
		c-1.3-0.4-2.3-1-3.3-1.8c-0.9-0.8-1.6-1.7-2.2-2.9c-0.5-1.1-0.8-2.4-0.8-3.9c0-1.4,0.3-2.7,0.8-3.9c0.5-1.2,1.2-2.1,2.1-3
		c0.9-0.8,2-1.4,3.2-1.9c1.2-0.4,2.6-0.7,4-0.7c1.3,0,2.6,0.2,3.7,0.6s2.1,1,2.9,1.8s1.5,1.8,1.9,3C204.8,132.2,205,133.6,205,135.2
		z M200.2,133.2c0-0.6-0.1-1.1-0.3-1.6c-0.2-0.5-0.4-1-0.8-1.4s-0.8-0.7-1.4-0.9c-0.6-0.2-1.2-0.3-2-0.3c-1.4,0-2.7,0.4-3.7,1.2
		c-1,0.8-1.6,1.8-1.7,3L200.2,133.2L200.2,133.2z"/>
	<path class="st2" d="M233.6,125.7c1.3,0,2.3,0.2,3.2,0.6c0.9,0.4,1.6,0.9,2.2,1.6s1,1.4,1.3,2.3s0.4,1.7,0.4,2.6v11h-4.8v-9.7
		c0-0.5,0-1-0.1-1.6s-0.3-1.1-0.5-1.5c-0.3-0.4-0.6-0.8-1.1-1.1c-0.5-0.3-1.1-0.4-1.9-0.4c-0.7,0-1.4,0.1-1.9,0.4s-1,0.7-1.3,1.1
		c-0.3,0.5-0.6,1-0.8,1.6c-0.2,0.6-0.2,1.1-0.2,1.7v9.6h-4.8v-10.6c0-1.1-0.3-2-0.9-2.7s-1.5-1.1-2.7-1.1c-0.7,0-1.3,0.1-1.9,0.4
		c-0.5,0.3-1,0.6-1.3,1.1c-0.3,0.4-0.6,0.9-0.8,1.5c-0.2,0.6-0.3,1.2-0.3,1.7v9.6h-4.8v-17.5h4.6v2.8h0.1c0.2-0.4,0.5-0.9,0.9-1.2
		c0.4-0.4,0.8-0.7,1.3-1.1c0.5-0.3,1.1-0.6,1.7-0.7c0.6-0.2,1.3-0.3,2.1-0.3c1.5,0,2.7,0.3,3.7,0.9s1.7,1.4,2.3,2.4
		c0.6-1.1,1.5-1.9,2.6-2.5C230.9,126,232.1,125.7,233.6,125.7z"/>
	<path class="st2" d="M276.9,123.9c-0.7-0.9-1.7-1.6-2.9-2s-2.4-0.6-3.5-0.6c-1.5,0-2.8,0.2-4,0.7s-2.2,1.2-3.1,2
		c-0.9,0.9-1.5,1.9-2,3s-0.7,2.4-0.7,3.7c0,1.4,0.2,2.7,0.7,3.9c0.5,1.2,1.1,2.2,1.9,3s1.8,1.5,3,2s2.5,0.7,4,0.7s2.9-0.3,4-0.8
		c1.2-0.5,2.1-1.3,2.8-2.2l4,2.6c-1.3,1.4-2.8,2.6-4.6,3.3c-1.8,0.8-3.9,1.2-6.4,1.2c-2.2,0-4.2-0.3-6.1-1c-1.9-0.7-3.4-1.6-4.8-2.8
		c-1.3-1.2-2.4-2.6-3.1-4.3c-0.7-1.7-1.1-3.5-1.1-5.5c0-2.1,0.4-3.9,1.2-5.6c0.8-1.7,1.9-3.1,3.2-4.3c1.3-1.2,3-2.1,4.9-2.7
		c1.9-0.6,3.9-0.9,6.1-0.9c0.9,0,1.9,0.1,2.8,0.2c1,0.2,1.9,0.4,2.8,0.7c0.9,0.3,1.8,0.7,2.6,1.2s1.5,1.1,2,1.8L276.9,123.9z"/>
	<path class="st2" d="M301.9,135.2c0,0.2,0,0.4,0,0.6s0,0.4,0,0.6h-14.6c0.1,0.6,0.2,1.2,0.5,1.7s0.7,1,1.2,1.4s1.1,0.7,1.7,0.9
		c0.6,0.2,1.3,0.3,2,0.3c1.2,0,2.2-0.2,3-0.6s1.5-1,2-1.7l3.2,2.3c-1.9,2.3-4.6,3.5-8.2,3.5c-1.5,0-2.9-0.2-4.1-0.6
		c-1.3-0.4-2.3-1-3.3-1.8c-0.9-0.8-1.6-1.7-2.2-2.9c-0.5-1.1-0.8-2.4-0.8-3.9c0-1.4,0.3-2.7,0.8-3.9c0.5-1.2,1.2-2.1,2.1-3
		c0.9-0.9,2-1.4,3.2-1.9c1.2-0.4,2.6-0.7,4-0.7c1.3,0,2.6,0.2,3.7,0.6c1.1,0.4,2.1,1,2.9,1.8c0.8,0.8,1.5,1.8,1.9,3
		C301.7,132.2,301.9,133.6,301.9,135.2z M297.1,133.2c0-0.6-0.1-1.1-0.3-1.6s-0.4-1-0.8-1.4c-0.4-0.4-0.8-0.7-1.4-0.9
		c-0.6-0.2-1.2-0.3-2-0.3c-1.4,0-2.7,0.4-3.7,1.2c-1,0.8-1.6,1.8-1.7,3L297.1,133.2L297.1,133.2z"/>
	<path class="st2" d="M306.6,126.2h4.6v2.8h0.1c0.4-0.9,1.2-1.6,2.2-2.3c1.1-0.7,2.3-1,3.7-1c1.3,0,2.3,0.2,3.2,0.6s1.6,0.9,2.2,1.6
		c0.6,0.7,1,1.4,1.3,2.3s0.4,1.7,0.4,2.6v11h-4.8v-9.7c0-0.5,0-1-0.1-1.6s-0.3-1.1-0.5-1.5c-0.3-0.4-0.6-0.8-1.1-1.1
		c-0.5-0.3-1.1-0.4-1.9-0.4s-1.4,0.1-2,0.4s-1,0.6-1.4,1.1c-0.4,0.4-0.6,0.9-0.8,1.5s-0.3,1.2-0.3,1.7v9.6h-4.8L306.6,126.2
		L306.6,126.2z"/>
	<path class="st2" d="M327.1,129.7v-3.5h3.4v-5.1h4.7v5.1h4.8v3.5h-4.8v8.1c0,0.8,0.2,1.4,0.5,1.9s1,0.8,2.1,0.8c0.3,0,0.7,0,1-0.1
		c0.4-0.1,0.7-0.2,1-0.3l0.2,3.4c-0.4,0.1-0.9,0.3-1.5,0.3c-0.6,0.1-1.1,0.1-1.7,0.1c-1.3,0-2.3-0.2-3.1-0.5s-1.4-0.8-1.9-1.4
		s-0.8-1.2-1-2c-0.2-0.7-0.3-1.5-0.3-2.4v-8.2h-3.4V129.7z"/>
	<path class="st2" d="M344.4,126.2h4.6v2.9h0.1c0.5-1,1.3-1.9,2.2-2.5c1-0.6,2.1-1,3.4-1c0.2,0,0.4,0,0.6,0c0.2,0,0.4,0,0.6,0.1v4
		c-0.3-0.1-0.6-0.1-0.8-0.1s-0.4,0-0.7,0c-1.1,0-2,0.2-2.6,0.5c-0.7,0.4-1.2,0.8-1.6,1.3c-0.4,0.5-0.6,1-0.8,1.6
		c-0.1,0.5-0.2,1-0.2,1.3v9.4h-4.8V126.2z"/>
	<path class="st2" d="M371.4,141.5L371.4,141.5c-0.6,0.8-1.4,1.4-2.4,1.9c-1.1,0.5-2.3,0.7-3.6,0.7c-0.8,0-1.6-0.1-2.4-0.3
		c-0.8-0.2-1.6-0.5-2.3-0.9s-1.3-1-1.8-1.7s-0.7-1.6-0.7-2.6c0-1.3,0.4-2.4,1.2-3.1c0.8-0.8,1.9-1.4,3.1-1.8
		c1.3-0.4,2.7-0.7,4.3-0.8c1.6-0.1,3.1-0.2,4.6-0.2v-0.4c0-1.1-0.4-1.9-1.3-2.4c-0.9-0.5-1.9-0.8-3.1-0.8c-1,0-2,0.2-2.9,0.6
		s-1.7,0.9-2.3,1.4l-2.5-2.7c1.1-0.9,2.4-1.6,3.8-2.1s2.9-0.7,4.3-0.7c1.7,0,3.1,0.2,4.2,0.7c1.1,0.4,2,1,2.6,1.7s1.1,1.5,1.3,2.4
		c0.3,0.9,0.4,1.8,0.4,2.6v10.7h-4.5V141.5z M371.3,135.7h-1.1c-0.8,0-1.6,0-2.4,0.1c-0.9,0.1-1.6,0.2-2.4,0.4
		c-0.7,0.2-1.3,0.5-1.8,0.9s-0.7,0.9-0.7,1.6c0,0.4,0.1,0.8,0.3,1c0.2,0.3,0.5,0.5,0.8,0.7s0.7,0.3,1.1,0.4c0.4,0.1,0.8,0.1,1.2,0.1
		c1.7,0,2.9-0.4,3.8-1.2c0.9-0.8,1.3-1.9,1.3-3.3L371.3,135.7L371.3,135.7z"/>
	<path class="st2" d="M393.4,141.5L393.4,141.5c-0.6,0.8-1.4,1.4-2.4,1.9c-1.1,0.5-2.3,0.7-3.6,0.7c-0.8,0-1.6-0.1-2.4-0.3
		c-0.8-0.2-1.6-0.5-2.3-0.9s-1.3-1-1.8-1.7s-0.7-1.6-0.7-2.6c0-1.3,0.4-2.4,1.2-3.1c0.8-0.8,1.9-1.4,3.1-1.8
		c1.3-0.4,2.7-0.7,4.3-0.8c1.6-0.1,3.1-0.2,4.6-0.2v-0.4c0-1.1-0.4-1.9-1.3-2.4c-0.9-0.5-1.9-0.8-3.1-0.8c-1,0-2,0.2-2.9,0.6
		s-1.7,0.9-2.3,1.4l-2.5-2.7c1.1-0.9,2.4-1.6,3.8-2.1s2.9-0.7,4.3-0.7c1.7,0,3.1,0.2,4.2,0.7c1.1,0.4,2,1,2.6,1.7s1.1,1.5,1.3,2.4
		c0.3,0.9,0.4,1.8,0.4,2.6v10.7h-4.5V141.5z M393.3,135.7h-1.1c-0.8,0-1.6,0-2.4,0.1c-0.9,0.1-1.6,0.2-2.4,0.4
		c-0.7,0.2-1.3,0.5-1.8,0.9s-0.7,0.9-0.7,1.6c0,0.4,0.1,0.8,0.3,1c0.2,0.3,0.5,0.5,0.8,0.7s0.7,0.3,1.1,0.4c0.4,0.1,0.8,0.1,1.2,0.1
		c1.7,0,2.9-0.4,3.8-1.2c0.9-0.8,1.3-1.9,1.3-3.3L393.3,135.7L393.3,135.7z"/>
	<path class="st2" d="M403.6,116.1h4.8v27.6h-4.8V116.1z"/>
	<g>
		<g>
			<path class="st2" d="M98,169.8L98,169.8l6.2-10.5h1.9L98.3,172h-1.7l-2-12.7h1.9L98,169.8z"/>
			<path class="st2" d="M108.5,172.4c-0.6,0-1.1-0.1-1.6-0.3c-0.5-0.2-0.9-0.4-1.3-0.8s-0.6-0.7-0.8-1.2c-0.2-0.5-0.3-1-0.3-1.5
				c0-0.7,0.1-1.4,0.4-2c0.2-0.6,0.6-1.2,1-1.7s1-0.9,1.6-1.2c0.6-0.3,1.3-0.4,2.1-0.4c0.6,0,1.1,0.1,1.6,0.3
				c0.5,0.2,0.9,0.4,1.3,0.8c0.4,0.3,0.6,0.7,0.8,1.2c0.2,0.5,0.3,1,0.3,1.5c0,0.7-0.1,1.4-0.4,2c-0.2,0.6-0.6,1.2-1,1.7
				c-0.5,0.5-1,0.9-1.6,1.2C110,172.2,109.3,172.4,108.5,172.4z M112,167.2c0-0.3-0.1-0.7-0.2-1s-0.3-0.6-0.5-0.8s-0.5-0.4-0.8-0.5
				s-0.6-0.2-1-0.2c-0.5,0-0.9,0.1-1.4,0.3c-0.4,0.2-0.8,0.5-1.1,0.8c-0.3,0.3-0.5,0.7-0.7,1.2s-0.2,0.9-0.2,1.4
				c0,0.7,0.2,1.3,0.6,1.8s1,0.7,1.8,0.7c0.5,0,0.9-0.1,1.3-0.3c0.4-0.2,0.8-0.5,1.1-0.8c0.3-0.3,0.5-0.7,0.7-1.2
				S112,167.7,112,167.2z"/>
			<path class="st2" d="M119.2,172.4c-0.6,0-1.1-0.1-1.6-0.3c-0.5-0.2-0.9-0.4-1.3-0.8s-0.6-0.7-0.8-1.2c-0.2-0.5-0.3-1-0.3-1.5
				c0-0.7,0.1-1.4,0.4-2c0.2-0.6,0.6-1.2,1-1.7s1-0.9,1.6-1.2c0.6-0.3,1.3-0.4,2.1-0.4c0.6,0,1.1,0.1,1.6,0.3
				c0.5,0.2,0.9,0.4,1.3,0.8c0.4,0.3,0.6,0.7,0.8,1.2c0.2,0.5,0.3,1,0.3,1.5c0,0.7-0.1,1.4-0.4,2c-0.2,0.6-0.6,1.2-1,1.7
				c-0.5,0.5-1,0.9-1.6,1.2C120.6,172.2,119.9,172.4,119.2,172.4z M122.6,167.2c0-0.3-0.1-0.7-0.2-1s-0.3-0.6-0.5-0.8
				s-0.5-0.4-0.8-0.5s-0.6-0.2-1-0.2c-0.5,0-0.9,0.1-1.4,0.3c-0.4,0.2-0.8,0.5-1.1,0.8c-0.3,0.3-0.5,0.7-0.7,1.2s-0.2,0.9-0.2,1.4
				c0,0.7,0.2,1.3,0.6,1.8s1,0.7,1.8,0.7c0.5,0,0.9-0.1,1.3-0.3c0.4-0.2,0.8-0.5,1.1-0.8c0.3-0.3,0.5-0.7,0.7-1.2
				S122.6,167.7,122.6,167.2z"/>
			<path class="st2" d="M127,164.6c0.1-0.4,0.1-0.7,0.1-1h1.6c0,0.1,0,0.2,0,0.3c0,0.1,0,0.3,0,0.4s0,0.3-0.1,0.4s0,0.2,0,0.3l0,0
				c0.3-0.5,0.7-0.9,1.1-1.2c0.4-0.3,1-0.5,1.5-0.5c0.3,0,0.5,0,0.7,0.1l-0.3,1.6c-0.2-0.1-0.5-0.1-0.7-0.1c-0.4,0-0.8,0.1-1.1,0.2
				c-0.3,0.2-0.6,0.4-0.8,0.6s-0.4,0.5-0.5,0.9c-0.1,0.3-0.2,0.7-0.3,1l-0.8,4.5h-1.7l1.2-6.7C126.9,165.2,126.9,164.9,127,164.6z"
				/>
			<path class="st2" d="M137.4,163.4c0.9,0,1.6,0.2,2.1,0.7s0.7,1.1,0.7,1.9c0,0.3,0,0.6-0.1,0.9l-0.9,5.3h-1.7l0.8-4.7
				c0.1-0.3,0.1-0.6,0.1-1c0-0.5-0.1-0.9-0.4-1.2c-0.2-0.3-0.7-0.5-1.3-0.5c-0.7,0-1.3,0.3-1.8,0.8s-0.8,1.2-1,2.1l-0.8,4.5h-1.4
				l2.4-13.6h1.7l-1.1,6.4l0,0c0.3-0.4,0.7-0.8,1.1-1.1C136.3,163.5,136.8,163.4,137.4,163.4z"/>
			<path class="st2" d="M143.7,168.4c0,0.1,0,0.1,0,0.2v0.1c0,0.3,0.1,0.6,0.2,0.9s0.3,0.5,0.5,0.7s0.5,0.4,0.8,0.5s0.6,0.2,1,0.2
				c0.6,0,1.1-0.1,1.6-0.4c0.4-0.2,0.8-0.6,1.1-0.9l1,0.9c-0.5,0.6-1.1,1-1.7,1.3s-1.4,0.4-2.1,0.4c-0.6,0-1.1-0.1-1.6-0.3
				c-0.5-0.2-0.9-0.4-1.3-0.7s-0.6-0.7-0.8-1.2c-0.2-0.5-0.3-1-0.3-1.6c0-0.7,0.1-1.4,0.4-2s0.6-1.2,1-1.7s1-0.8,1.6-1.1
				c0.6-0.3,1.3-0.4,2-0.4c1.1,0,2,0.3,2.6,0.9s1,1.4,1,2.5c0,0.2,0,0.4,0,0.7c0,0.3-0.1,0.6-0.1,0.9h-6.9V168.4z M148.9,167.1
				c0-0.1,0-0.2,0-0.3c0-0.1,0-0.2,0-0.3c0-0.6-0.2-1-0.5-1.4c-0.4-0.4-0.9-0.5-1.6-0.5c-0.4,0-0.8,0.1-1.1,0.2
				c-0.3,0.1-0.6,0.3-0.9,0.6c-0.3,0.2-0.5,0.5-0.6,0.8c-0.2,0.3-0.3,0.6-0.4,0.9L148.9,167.1L148.9,167.1z"/>
			<path class="st2" d="M153.6,168.4c0,0.1,0,0.1,0,0.2v0.1c0,0.3,0.1,0.6,0.2,0.9s0.3,0.5,0.5,0.7s0.5,0.4,0.8,0.5s0.6,0.2,1,0.2
				c0.6,0,1.1-0.1,1.6-0.4c0.4-0.2,0.8-0.6,1.1-0.9l1,0.9c-0.5,0.6-1.1,1-1.7,1.3s-1.4,0.4-2.1,0.4c-0.6,0-1.1-0.1-1.6-0.3
				c-0.5-0.2-0.9-0.4-1.3-0.7s-0.6-0.7-0.8-1.2c-0.2-0.5-0.3-1-0.3-1.6c0-0.7,0.1-1.4,0.4-2s0.6-1.2,1-1.7s1-0.8,1.6-1.1
				c0.6-0.3,1.3-0.4,2-0.4c1.1,0,2,0.3,2.6,0.9s1,1.4,1,2.5c0,0.2,0,0.4,0,0.7c0,0.3-0.1,0.6-0.1,0.9h-6.9V168.4z M158.9,167.1
				c0-0.1,0-0.2,0-0.3c0-0.1,0-0.2,0-0.3c0-0.6-0.2-1-0.5-1.4c-0.4-0.4-0.9-0.5-1.6-0.5c-0.4,0-0.8,0.1-1.1,0.2
				c-0.3,0.1-0.6,0.3-0.9,0.6c-0.3,0.2-0.5,0.5-0.6,0.8c-0.2,0.3-0.3,0.6-0.4,0.9L158.9,167.1L158.9,167.1z"/>
			<path class="st2" d="M165,163.6c0,0.2-0.1,0.4-0.1,0.7c0,0.3-0.1,0.5-0.1,0.7l0,0c0.3-0.5,0.7-0.9,1.2-1.2s1-0.4,1.6-0.4
				c0.9,0,1.6,0.2,2.1,0.7s0.7,1.1,0.7,1.9c0,0.3,0,0.6-0.1,0.9l-0.9,5.3h-1.7l0.8-4.7c0.1-0.3,0.1-0.6,0.1-1c0-0.5-0.1-0.9-0.4-1.2
				c-0.2-0.3-0.7-0.5-1.3-0.5c-0.7,0-1.3,0.3-1.7,0.8c-0.5,0.5-0.8,1.2-1,2l-0.8,4.5h-1.7l1.2-6.7c0-0.2,0.1-0.5,0.2-0.9
				s0.1-0.7,0.1-1h1.8V163.6z"/>
			<path class="st2" d="M186.9,160.9l-8.8,9.6h7.3l-0.3,1.5h-9.6l0.3-1.5l8.9-9.6h-6.6l0.3-1.5h8.9L186.9,160.9z"/>
			<path class="st2" d="M192.5,172.1c0-0.2,0.1-0.4,0.1-0.7c0-0.3,0.1-0.5,0.1-0.7l0,0c-0.3,0.5-0.7,0.9-1.2,1.2
				c-0.5,0.3-1,0.4-1.6,0.4c-0.9,0-1.6-0.2-2.1-0.7s-0.7-1.1-0.7-1.9c0-0.1,0-0.3,0-0.4s0-0.3,0.1-0.4l0.9-5.3h1.7l-0.8,4.7
				c0,0.2,0,0.3-0.1,0.5s0,0.3,0,0.5c0,0.5,0.1,0.9,0.4,1.2c0.2,0.3,0.7,0.5,1.3,0.5c0.7,0,1.3-0.3,1.8-0.8s0.8-1.2,1-2l0.8-4.5h1.7
				l-1.2,6.7c0,0.2-0.1,0.5-0.2,0.9s-0.1,0.7-0.1,1h-1.9V172.1z"/>
			<path class="st2" d="M198.6,172.1h-1.7l1.5-8.5h1.7L198.6,172.1z M200.9,160.5c0,0.3-0.1,0.6-0.3,0.8s-0.5,0.3-0.7,0.3
				c-0.3,0-0.5-0.1-0.7-0.3c-0.2-0.2-0.3-0.4-0.3-0.8s0.1-0.6,0.3-0.8c0.2-0.2,0.5-0.3,0.8-0.3s0.5,0.1,0.7,0.3
				C200.8,159.9,200.9,160.2,200.9,160.5z"/>
			<path class="st2" d="M201.5,168.7c0-0.7,0.1-1.4,0.4-2.1c0.2-0.6,0.6-1.2,1-1.7s0.9-0.9,1.5-1.1c0.6-0.3,1.2-0.4,2-0.4
				c0.7,0,1.3,0.1,1.8,0.4s0.9,0.7,1.2,1.2l0,0l1.1-6.5h1.7l-2.4,13.6h-1.6l0.2-1.4l0,0c-0.3,0.5-0.7,0.8-1.3,1.1s-1.2,0.4-1.8,0.4
				c-0.6,0-1.1-0.1-1.5-0.3c-0.5-0.2-0.8-0.4-1.2-0.8c-0.3-0.3-0.6-0.7-0.8-1.2C201.6,169.7,201.5,169.2,201.5,168.7z M203.2,168.5
				c0,0.7,0.2,1.3,0.6,1.8s1,0.7,1.8,0.7c0.5,0,0.9-0.1,1.3-0.3c0.4-0.2,0.8-0.5,1.1-0.8c0.3-0.3,0.5-0.7,0.7-1.2s0.3-0.9,0.3-1.4
				c0-0.4-0.1-0.7-0.2-1s-0.3-0.6-0.5-0.8c-0.2-0.2-0.5-0.4-0.8-0.5s-0.6-0.2-1-0.2c-0.5,0-1,0.1-1.4,0.3c-0.4,0.2-0.8,0.5-1,0.8
				s-0.5,0.7-0.7,1.2S203.2,168,203.2,168.5z"/>
			<path class="st2" d="M228.1,170.1c-0.3,0.3-0.5,0.6-0.9,0.9s-0.7,0.5-1.1,0.7s-0.9,0.4-1.4,0.5s-1.1,0.2-1.7,0.2
				c-0.9,0-1.6-0.1-2.3-0.4s-1.3-0.6-1.8-1.1s-0.9-1.1-1.2-1.7c-0.3-0.7-0.4-1.4-0.4-2.2c0-1.1,0.2-2.1,0.6-3.1s0.9-1.8,1.6-2.5
				s1.5-1.3,2.4-1.7s1.9-0.6,3-0.6c0.5,0,0.9,0,1.4,0.1c0.4,0.1,0.8,0.2,1.2,0.4s0.7,0.4,1,0.6s0.5,0.5,0.7,0.8l-1.5,1.1
				c-0.1-0.2-0.2-0.4-0.4-0.5c-0.2-0.2-0.4-0.3-0.6-0.5s-0.5-0.3-0.8-0.4s-0.7-0.1-1-0.1c-0.8,0-1.6,0.2-2.3,0.5
				c-0.7,0.4-1.3,0.8-1.8,1.4s-0.9,1.2-1.2,2c-0.3,0.7-0.4,1.5-0.4,2.3c0,0.6,0.1,1.1,0.3,1.6c0.2,0.5,0.4,0.9,0.8,1.3
				c0.3,0.4,0.8,0.7,1.3,0.9c0.5,0.2,1.1,0.3,1.7,0.3c0.7,0,1.4-0.1,2-0.4s1.2-0.7,1.7-1.3L228.1,170.1z"/>
			<path class="st2" d="M230.8,168.4c0,0.1,0,0.1,0,0.2v0.1c0,0.3,0.1,0.6,0.2,0.9s0.3,0.5,0.5,0.7s0.5,0.4,0.8,0.5s0.6,0.2,1,0.2
				c0.6,0,1.1-0.1,1.6-0.4c0.4-0.2,0.8-0.6,1.1-0.9l1,0.9c-0.5,0.6-1.1,1-1.7,1.3s-1.4,0.4-2.1,0.4c-0.6,0-1.1-0.1-1.6-0.3
				c-0.5-0.2-0.9-0.4-1.3-0.7c-0.4-0.3-0.6-0.7-0.8-1.2c-0.2-0.5-0.3-1-0.3-1.6c0-0.7,0.1-1.4,0.4-2s0.6-1.2,1-1.7s1-0.8,1.6-1.1
				c0.6-0.3,1.3-0.4,2-0.4c1.1,0,2,0.3,2.6,0.9s1,1.4,1,2.5c0,0.2,0,0.4,0,0.7c0,0.3-0.1,0.6-0.1,0.9h-6.9V168.4z M236.1,167.1
				c0-0.1,0-0.2,0-0.3s0-0.2,0-0.3c0-0.6-0.2-1-0.5-1.4c-0.4-0.4-0.9-0.5-1.6-0.5c-0.4,0-0.8,0.1-1.1,0.2c-0.3,0.1-0.6,0.3-0.9,0.6
				c-0.3,0.2-0.5,0.5-0.6,0.8s-0.3,0.6-0.4,0.9L236.1,167.1L236.1,167.1z"/>
			<path class="st2" d="M242.1,163.6c0,0.2-0.1,0.4-0.1,0.7c0,0.3-0.1,0.5-0.1,0.7l0,0c0.3-0.5,0.7-0.9,1.2-1.2s1-0.4,1.6-0.4
				c0.9,0,1.6,0.2,2.1,0.7s0.7,1.1,0.7,1.9c0,0.3,0,0.6-0.1,0.9l-0.9,5.3h-1.7l0.8-4.7c0.1-0.3,0.1-0.6,0.1-1c0-0.5-0.1-0.9-0.4-1.2
				c-0.2-0.3-0.7-0.5-1.3-0.5c-0.7,0-1.3,0.3-1.7,0.8c-0.5,0.5-0.8,1.2-1,2l-0.8,4.5h-1.7l1.2-6.7c0-0.2,0.1-0.5,0.2-0.9
				s0.1-0.7,0.1-1h1.8V163.6z"/>
			<path class="st2" d="M254.5,165h-2.1l-0.8,4.5c0,0.2-0.1,0.4-0.1,0.5c0,0.4,0.1,0.6,0.3,0.7c0.2,0.1,0.4,0.2,0.7,0.2
				c0.2,0,0.3,0,0.5-0.1c0.2,0,0.3-0.1,0.4-0.1l-0.1,1.3c-0.2,0.1-0.4,0.1-0.6,0.2c-0.2,0-0.5,0.1-0.7,0.1c-0.7,0-1.2-0.1-1.6-0.4
				s-0.6-0.8-0.6-1.4c0-0.1,0-0.3,0-0.4s0-0.3,0.1-0.4l0.8-4.6h-1.6l0.3-1.4h1.6l0.4-2.4h1.7l-0.4,2.4h2.1L254.5,165z"/>
			<path class="st2" d="M256.3,164.6c0.1-0.4,0.1-0.7,0.1-1h1.6c0,0.1,0,0.2,0,0.3s0,0.3,0,0.4s0,0.3-0.1,0.4c-0.1,0.1,0,0.2,0,0.3
				l0,0c0.3-0.5,0.7-0.9,1.1-1.2c0.5-0.3,1-0.5,1.5-0.5c0.3,0,0.5,0,0.7,0.1l-0.3,1.6c-0.2-0.1-0.5-0.1-0.7-0.1
				c-0.4,0-0.8,0.1-1.1,0.2c-0.3,0.2-0.6,0.4-0.8,0.6c-0.2,0.3-0.4,0.5-0.5,0.9c-0.1,0.3-0.2,0.7-0.3,1l-0.8,4.5H255l1.2-6.7
				C256.2,165.2,256.3,164.9,256.3,164.6z"/>
			<path class="st2" d="M267,166.8c0-0.2,0-0.3,0.1-0.4c0-0.1,0-0.2,0-0.3c0-0.5-0.2-0.9-0.5-1.1s-0.8-0.3-1.3-0.3s-0.9,0.1-1.4,0.3
				c-0.5,0.2-0.9,0.4-1.2,0.7l-0.7-1.1c0.5-0.4,1-0.6,1.6-0.9c0.6-0.3,1.2-0.3,1.9-0.3c0.4,0,0.8,0,1.2,0.1s0.7,0.2,1,0.4
				s0.5,0.5,0.7,0.8s0.3,0.7,0.3,1.2c0,0.1,0,0.2,0,0.4c0,0.2,0,0.3-0.1,0.4l-0.6,3.5c-0.1,0.3-0.1,0.7-0.1,1c0,0.4-0.1,0.7-0.1,0.9
				h-1.5c0-0.2,0-0.4,0-0.6s0-0.4,0.1-0.6l0,0c-0.4,0.5-0.9,0.8-1.3,1c-0.5,0.2-1,0.3-1.7,0.3c-0.3,0-0.6,0-0.9-0.1
				s-0.6-0.2-0.9-0.4c-0.3-0.2-0.5-0.4-0.6-0.7c-0.1-0.3-0.3-0.6-0.3-1.1c0-0.7,0.2-1.3,0.6-1.7c0.4-0.4,0.9-0.8,1.5-1
				c0.6-0.2,1.3-0.4,2-0.5S266.2,166.8,267,166.8z M266.5,168c-0.5,0-1,0-1.5,0.1s-1,0.1-1.4,0.3c-0.4,0.2-0.8,0.3-1,0.5
				c-0.3,0.2-0.4,0.6-0.4,0.9c0,0.2,0,0.4,0.1,0.6c0.1,0.2,0.2,0.3,0.4,0.4c0.1,0.1,0.3,0.2,0.5,0.2s0.4,0.1,0.6,0.1
				c0.4,0,0.7-0.1,1-0.2s0.6-0.3,0.8-0.5c0.2-0.2,0.4-0.5,0.6-0.8s0.3-0.6,0.3-0.9l0.1-0.6h-0.1V168z"/>
			<path class="st2" d="M276.4,166.8c0-0.2,0-0.3,0.1-0.4c0-0.1,0-0.2,0-0.3c0-0.5-0.2-0.9-0.5-1.1s-0.8-0.3-1.3-0.3
				s-0.9,0.1-1.4,0.3c-0.5,0.2-0.9,0.4-1.2,0.7l-0.7-1.1c0.5-0.4,1-0.6,1.6-0.9c0.6-0.3,1.2-0.3,1.9-0.3c0.4,0,0.8,0,1.2,0.1
				s0.7,0.2,1,0.4s0.5,0.5,0.7,0.8s0.3,0.7,0.3,1.2c0,0.1,0,0.2,0,0.4c0,0.2,0,0.3-0.1,0.4l-0.6,3.5c-0.1,0.3-0.1,0.7-0.1,1
				c0,0.4-0.1,0.7-0.1,0.9h-1.5c0-0.2,0-0.4,0-0.6s0-0.4,0.1-0.6l0,0c-0.4,0.5-0.9,0.8-1.3,1c-0.5,0.2-1,0.3-1.7,0.3
				c-0.3,0-0.6,0-0.9-0.1s-0.6-0.2-0.9-0.4c-0.3-0.2-0.5-0.4-0.6-0.7c-0.1-0.3-0.3-0.6-0.3-1.1c0-0.7,0.2-1.3,0.6-1.7
				c0.4-0.4,0.9-0.8,1.5-1c0.6-0.2,1.3-0.4,2-0.5S275.7,166.8,276.4,166.8z M276,168c-0.5,0-1,0-1.5,0.1s-1,0.1-1.4,0.3
				c-0.4,0.2-0.8,0.3-1,0.5c-0.3,0.2-0.4,0.6-0.4,0.9c0,0.2,0,0.4,0.1,0.6c0.1,0.2,0.2,0.3,0.4,0.4c0.1,0.1,0.3,0.2,0.5,0.2
				s0.4,0.1,0.6,0.1c0.4,0,0.7-0.1,1-0.2s0.6-0.3,0.8-0.5c0.2-0.2,0.4-0.5,0.6-0.8s0.3-0.6,0.3-0.9l0.1-0.6H276V168z"/>
			<path class="st2" d="M281.5,172.1h-1.7l2.4-13.6h1.7L281.5,172.1z"/>
		</g>
	</g>
</g>
</svg>
