<?xml version="1.0" encoding="utf-8"?>
<!-- Generator: Adobe Illustrator 22.0.1, SVG Export Plug-In . SVG Version: 6.00 Build 0)  -->
<svg version="1.1" id="Layer_1" xmlns="http://www.w3.org/2000/svg" xmlns:xlink="http://www.w3.org/1999/xlink" x="0px" y="0px"
	 viewBox="0 0 360.5 105" style="enable-background:new 0 0 360.5 105;" xml:space="preserve">
<style type="text/css">
	.st0{fill:#223A78;}
	.st1{fill:#FFFFFF;}
</style>
<rect class="st0" width="360.5" height="105"/>
<g>
	<path class="st1" d="M17.4,81.8l22.8-59.4h8.5L73,81.8h-9l-6.9-18H32.3l-6.5,18H17.4z M34.5,57.4h20.2l-6.2-16.5
		c-1.9-5-3.3-9.1-4.2-12.3c-0.8,3.8-1.8,7.6-3.2,11.3L34.5,57.4z"/>
	<path class="st1" d="M78.3,81.8v-43h6.6v6.5c1.7-3.1,3.2-5.1,4.6-6c1.4-1,3-1.5,4.7-1.5c2.5,0,5,0.8,7.5,2.4L99.2,47
		c-1.8-1.1-3.6-1.6-5.3-1.6c-1.6,0-3,0.5-4.3,1.4c-1.3,1-2.2,2.3-2.7,4c-0.8,2.6-1.2,5.4-1.2,8.5v22.5L78.3,81.8L78.3,81.8z"/>
	<path class="st1" d="M106,81.8v-43h6.6v6.1c3.2-4.7,7.7-7.1,13.7-7.1c2.6,0,5,0.5,7.2,1.4s3.8,2.2,4.9,3.7s1.8,3.3,2.3,5.4
		c0.3,1.4,0.4,3.7,0.4,7.1v26.5h-7.4V55.7c0-3-0.3-5.2-0.9-6.7s-1.6-2.6-3-3.5s-3.1-1.3-5.1-1.3c-3.1,0-5.8,1-8,3
		c-2.3,2-3.4,5.7-3.4,11.2v23.5H106V81.8z"/>
	<path class="st1" d="M152.1,81.8V22.4h7.3v21.3c3.4-3.9,7.7-5.9,12.9-5.9c3.2,0,6,0.6,8.3,1.9c2.4,1.3,4,3,5,5.2s1.5,5.4,1.5,9.6
		v27.3h-7.3V54.5c0-3.6-0.8-6.3-2.4-8s-3.8-2.5-6.7-2.5c-2.2,0-4.2,0.6-6.1,1.7s-3.3,2.6-4.1,4.6c-0.8,1.9-1.2,4.6-1.2,7.9v23.5
		L152.1,81.8L152.1,81.8z"/>
	<path class="st1" d="M227.8,68l7.5,0.9c-1.2,4.4-3.4,7.8-6.6,10.3c-3.2,2.4-7.3,3.6-12.3,3.6c-6.3,0-11.3-1.9-15-5.8
		s-5.5-9.3-5.5-16.3c0-7.2,1.9-12.9,5.6-16.9s8.6-6,14.5-6c5.8,0,10.5,2,14.1,5.9s5.5,9.4,5.5,16.5c0,0.4,0,1.1,0,1.9h-32.1
		c0.3,4.7,1.6,8.3,4,10.9c2.4,2.5,5.4,3.8,9,3.8c2.7,0,5-0.7,6.8-2.1C225.2,73.3,226.7,71,227.8,68z M203.8,56.2h24
		c-0.3-3.6-1.2-6.3-2.8-8.1c-2.3-2.8-5.3-4.2-9-4.2c-3.4,0-6.2,1.1-8.5,3.4C205.3,49.4,204.1,52.4,203.8,56.2z"/>
	<path class="st1" d="M244.5,81.8v-43h6.5v6c1.4-2.1,3.1-3.8,5.4-5.1c2.2-1.3,4.8-1.9,7.7-1.9c3.2,0,5.8,0.7,7.8,2
		c2,1.3,3.5,3.2,4.3,5.6c3.4-5,7.8-7.5,13.3-7.5c4.3,0,7.6,1.2,9.8,3.5c2.3,2.4,3.4,6,3.4,10.9v29.5h-7.3V54.7c0-2.9-0.2-5-0.7-6.3
		s-1.3-2.3-2.6-3.1c-1.2-0.8-2.7-1.2-4.4-1.2c-3,0-5.5,1-7.5,3s-3,5.2-3,9.7v25h-7.3v-28c0-3.2-0.6-5.7-1.8-7.3
		c-1.2-1.6-3.1-2.4-5.8-2.4c-2.1,0-4,0.5-5.7,1.6c-1.7,1.1-3,2.7-3.8,4.7c-0.8,2.1-1.2,5.1-1.2,9v22.3L244.5,81.8L244.5,81.8z"/>
	<path class="st1" d="M339,81.8h-7.3V35.3c-1.8,1.7-4.1,3.3-6.9,5c-2.9,1.7-5.4,2.9-7.7,3.8V37c4.1-1.9,7.6-4.2,10.7-7
		c3.1-2.7,5.2-5.4,6.5-7.9h4.7V81.8z"/>
</g>
<g>
	<path class="st1" d="M351.8,9.2v86.5H8.6V9.2H351.8 M355.8,5.2H4.6v94.5h351.2V5.2L355.8,5.2z"/>
</g>
</svg>
