<?xml version="1.0" encoding="utf-8"?>
<!-- Generator: Adobe Illustrator 22.0.1, SVG Export Plug-In . SVG Version: 6.00 Build 0)  -->
<svg version="1.1" id="Laag_1" xmlns="http://www.w3.org/2000/svg" xmlns:xlink="http://www.w3.org/1999/xlink" x="0px" y="0px"
	 viewBox="0 0 2500 2500" style="enable-background:new 0 0 2500 2500;" xml:space="preserve">
<style type="text/css">
	.st0{fill:#00785F;}
</style>
<path class="st0" d="M1289.7,1112.4h-56.5l-97,277.9c186.1,0,232.9-161.4,232.9-221.4C1369.1,1129.1,1330.3,1112.4,1289.7,1112.4z
	 M1862.2,1354.1h116.4l18.5-209.1h-14.1L1862.2,1354.1z"/>
<path class="st0" d="M1250,0C561,0,0,561,0,1250c0,689.8,561,1250,1250,1250c689.8,0,1250-561,1250-1250C2500.9,561,1939.8,0,1250,0
	z M734.8,1555.2c-45.9,13.2-122.6,25.6-201.1,25.6c-182.6,0-285.8-132.3-285.8-230.2c0-256.7,251.4-429.6,510.8-429.6
	c61.8,0,132.3,7.9,183.5,21.2L871.6,1145c-32.6-13.2-90-21.2-150.8-21.2c-79.4,0-213.5,60-213.5,167.6c0,61.8,48.5,91.7,136.7,91.7
	c61.8,0,104.1-13.2,162.3-36.2L734.8,1555.2L734.8,1555.2z M1120.3,1576.4H832.7l228.5-652.8h254.9c247.9,0,305.2,123.5,305.2,227.6
	C1621.4,1344.4,1436.1,1576.4,1120.3,1576.4L1120.3,1576.4z M1960.1,1576.4l8.8-102.3h-176.4l-60,102.3h-255.8l482.5-652.8h235.5
	v652.8H1960.1L1960.1,1576.4z"/>
</svg>
