<?xml version="1.0" encoding="utf-8"?>
<!-- Generator: Adobe Illustrator 22.0.1, SVG Export Plug-In . SVG Version: 6.00 Build 0)  -->
<svg version="1.1" id="christenunie" xmlns="http://www.w3.org/2000/svg" xmlns:xlink="http://www.w3.org/1999/xlink" x="0px"
	 y="0px" viewBox="0 0 200 23.8" style="enable-background:new 0 0 200 23.8;" xml:space="preserve">
<style type="text/css">
	.st0{fill:#002D6A;}
	.st1{fill:#00AEEF;}
</style>
<g>
	<path class="st0" d="M0,12.3C-0.1,6,4.9,0.9,11.2,0.8c0.3,0,0.6,0,0.8,0c4.1-0.2,7.9,2.2,9.7,5.9L16.7,9c-0.8-1.9-2.7-3.1-4.7-3.2
		c-3.5,0-6.4,2.9-6.4,6.4c0,3.5,2.9,6.4,6.4,6.4c2.1-0.1,3.9-1.3,4.7-3.3l4.9,2.3c-1.7,3.7-5.5,6.1-9.7,5.9
		C5.8,24.1,0.4,19.3,0,13.1C0,12.8,0,12.5,0,12.3z"/>
	<path class="st0" d="M34.9,14c0.2-1.2-0.7-2.4-1.9-2.6c-0.2,0-0.5,0-0.7,0c-1.2,0-2.3,0.6-3.1,1.6v10.4H24V1.2h5.1v8.1
		c1.4-1.6,3.5-2.4,5.6-2.4c2.6-0.3,4.9,1.4,5.3,4c0,0.3,0.1,0.7,0,1v11.4h-5.1C34.9,23.3,34.9,14,34.9,14z"/>
	<path class="st0" d="M43.7,7.3h5.1v2c1.3-1.5,3.1-2.4,5-2.4v4.9c-0.4-0.1-0.8-0.2-1.3-0.2c-1.4,0-2.8,0.5-3.7,1.5v10.2h-5.1V7.3
		L43.7,7.3z"/>
	<path class="st0" d="M55.8,2.9c0-1.6,1.3-2.9,3-2.9c1.6,0,2.9,1.3,2.9,3c0,1.6-1.3,2.9-2.9,2.9C57.1,5.9,55.8,4.6,55.8,2.9
		C55.8,3,55.8,2.9,55.8,2.9z M56.2,7.2h5.1v16h-5.1V7.2z"/>
	<path class="st0" d="M65.8,17.8c1.6,1.3,3.6,2,5.6,2.1c1.5,0,2.1-0.5,2.1-1.2c0-0.7-1.2-1.1-2.7-1.3c-2.7-0.4-6.6-1.1-6.6-5.2
		c0-2.8,2.4-5.3,6.9-5.3c2.4,0,4.8,0.7,6.7,2.1L76,12.4c-1.3-1.1-3-1.8-4.7-1.8c-0.9-0.2-1.7,0.3-2,1.1c0,0.7,0.9,0.8,2.6,1.1
		c2.7,0.5,6.8,1.2,6.8,5.5c0,3.1-2.7,5.3-7.3,5.3c-2.7,0.1-5.4-0.8-7.5-2.5L65.8,17.8z"/>
	<path class="st0" d="M82.2,19v-7.3h-2.7V7.3h2.7V3h5.1v4.3h3.3v4.4h-3.3v5.8c-0.1,0.8,0.5,1.5,1.3,1.6c0.1,0,0.1,0,0.2,0
		c0.5,0,0.9-0.1,1.3-0.4l1,3.8c-1.1,0.8-2.4,1.2-3.8,1.1c-2.3,0.4-4.5-1.2-4.9-3.5C82.1,19.8,82.1,19.4,82.2,19z"/>
	<path class="st0" d="M100.5,6.9c4.7,0,8.2,3.5,8.2,8.9v1.1H97.3c0.5,1.8,2.2,3,4,2.8c1.4,0,2.8-0.5,3.9-1.4l2.1,3.2
		c-1.9,1.5-4.3,2.2-6.7,2.1c-4.6,0.5-8.8-2.9-9.2-7.6c-0.5-4.6,2.9-8.8,7.6-9.2C99.5,6.9,100,6.9,100.5,6.9z M97.2,13.6h6.5
		c-0.2-1.7-1.6-2.9-3.3-2.8C98.8,10.8,97.4,12,97.2,13.6L97.2,13.6z"/>
	<path class="st0" d="M122.1,14.1c0.2-1.3-0.7-2.4-1.9-2.6c-0.2,0-0.5,0-0.7,0c-1.2,0-2.4,0.6-3.1,1.6v10.4h-5.1v-16h5.1v2
		c1.4-1.6,3.4-2.4,5.5-2.4c2.6-0.4,5,1.4,5.4,4c0.1,0.4,0.1,0.7,0,1.1v11.4h-5.2C122.1,23.3,122.1,14.1,122.1,14.1z"/>
	<path class="st1" d="M131.1,1.2h5.8v13c0,2.6,2.1,4.7,4.7,4.7s4.7-2.1,4.7-4.7l0,0v-13h5.8v13.2c0,5.5-3.4,9.4-10.4,9.4
		s-10.5-4-10.5-9.4L131.1,1.2L131.1,1.2z"/>
	<path class="st1" d="M166.7,14.1c0.2-1.3-0.7-2.4-1.9-2.6c-0.2,0-0.5,0-0.7,0c-1.2,0-2.4,0.6-3.1,1.6v10.4h-5.1v-16h5.1v2
		c1.4-1.6,3.5-2.4,5.6-2.4c2.6-0.3,5,1.5,5.3,4.1c0,0.3,0,0.7,0,1v11.4h-5.1L166.7,14.1L166.7,14.1z"/>
	<path class="st1" d="M175.2,2.9c0-1.6,1.3-2.9,3-2.9c1.6,0,2.9,1.3,2.9,3c0,1.6-1.3,2.9-2.9,2.9C176.5,5.9,175.2,4.6,175.2,2.9
		C175.2,3,175.2,2.9,175.2,2.9z M175.5,7.2h5.2v16h-5.2V7.2z"/>
	<path class="st1" d="M191.9,6.9c4.7,0,8.1,3.5,8.1,8.9v1.1h-11.4c0.5,1.8,2.2,3,4.1,2.8c1.4,0,2.8-0.5,3.9-1.4l2.1,3.2
		c-1.9,1.5-4.3,2.2-6.7,2.1c-4.6,0.5-8.8-2.9-9.2-7.6c-0.5-4.6,2.9-8.8,7.6-9.2C190.9,6.9,191.4,6.9,191.9,6.9z M188.6,13.6h6.6
		c-0.2-1.7-1.6-2.9-3.3-2.8C190.2,10.8,188.8,12,188.6,13.6z"/>
</g>
</svg>
