<?xml version="1.0" encoding="utf-8"?>
<!-- Generator: Adobe Illustrator 22.0.1, SVG Export Plug-In . SVG Version: 6.00 Build 0)  -->
<svg version="1.1" id="Layer_1" xmlns="http://www.w3.org/2000/svg" xmlns:xlink="http://www.w3.org/1999/xlink" x="0px" y="0px"
	 viewBox="0 0 2500 1471" style="enable-background:new 0 0 2500 1471;" xml:space="preserve">
<style type="text/css">
	.st0{fill:#00AF3F;}
	.st1{fill:#FFFFFF;}
</style>
<path class="st0" d="M0.4,0h2499.3v1471H0.4V0z"/>
<path class="st1" d="M1976.2,643.4c80.7,0,117.9,72.4,117.9,144.8c0,68.3-43.4,140.7-117.9,140.7c-78.6,0-124.1-70.3-124.1-142.8
	C1852.1,709.6,1893.4,643.4,1976.2,643.4 M2236.9,471.7c-16.6-134.5-115.9-213.1-250.3-213.1c-219.3,0-302.1,213.1-302.1,401.4
	c0,194.5,62.1,397.2,295.9,397.2c161.4,0,269-124.1,269-281.4c0-60-18.6-124.1-60-171.7c-43.4-47.6-111.7-78.6-175.9-78.6
	c-74.5,0-130.3,24.8-173.8,84.8l-2.1-2.1c4.1-84.8,33.1-233.8,146.9-233.8c53.8,0,93.1,43.4,103.4,95.2L2236.9,471.7z M1328.6,643.4
	c80.7,0,117.9,72.4,117.9,144.8c0,68.3-43.4,140.7-117.9,140.7c-78.6,0-124.1-70.3-124.1-142.8
	C1204.5,709.6,1245.9,643.4,1328.6,643.4 M1589.3,471.7c-18.6-134.5-115.9-213.1-250.3-213.1c-219.3,0-302.1,213.1-302.1,401.4
	c0,194.5,62.1,397.2,295.9,397.2c161.4,0,269-124.1,269-281.4c0-60-18.6-124.1-60-171.7c-43.4-47.6-111.7-78.6-175.9-78.6
	c-74.5,0-130.3,24.8-173.8,84.8l-2.1-2.1c4.1-84.8,33.1-233.8,146.9-233.8c53.8,0,93.1,43.4,103.4,95.2L1589.3,471.7L1589.3,471.7z
	 M426.6,403.4h122.1c171.7,0,225.5,101.4,225.5,258.6c0,173.8-95.2,233.8-194.5,233.8H426.6V403.4L426.6,403.4z M254.9,1040.7h339.3
	c240,0,355.9-169.7,355.9-395.2c0-260.7-153.1-386.9-355.9-386.9H254.9L254.9,1040.7"/>
</svg>
