<?xml version="1.0" encoding="utf-8"?>
<!-- Generator: Adobe Illustrator 22.0.1, SVG Export Plug-In . SVG Version: 6.00 Build 0)  -->
<svg version="1.1" id="denk" xmlns="http://www.w3.org/2000/svg" xmlns:xlink="http://www.w3.org/1999/xlink" x="0px" y="0px"
	 viewBox="0 0 125 125" style="enable-background:new 0 0 125 125;" xml:space="preserve">
<style type="text/css">
	.st0{fill:#41B9BD;}
	.st1{fill:#FFFFFF;}
</style>
<g>
	<g id="Layer_2_1_">
		<path class="st0" d="M116.2,105.4c0,6-4.9,10.8-10.8,10.8H19.6c-6,0-10.8-4.9-10.8-10.8V19.6c0-6,4.9-10.8,10.8-10.8h85.8
			c6,0,10.8,4.9,10.8,10.8L116.2,105.4L116.2,105.4z"/>
	</g>
	<g id="Laag_1_1_">
		<g>
			<path class="st1" d="M105.4,0H19.6C8.8,0,0,8.8,0,19.6v85.8C0,116.2,8.8,125,19.6,125h85.8c10.8,0,19.6-8.8,19.6-19.6V19.6
				C125,8.8,116.2,0,105.4,0z M116.2,100.5c-0.1-0.3-0.3-0.5-0.5-0.8l-7.8-8.9l7.8-8.8c0.2-0.2,0.4-0.5,0.5-0.8V100.5z M105.4,116.2
				H19.6c-6,0-10.8-4.9-10.8-10.8v-0.6c0.2,0.4,0.4,0.6,0.7,0.9c0.9,0.8,2,1.2,3.3,1.2h5c2.6,0,5-0.4,6.9-1.4c2-0.9,3.6-2.1,5-3.6
				s2.3-3.1,3-5s1-3.8,1-5.8c0-2-0.4-4-1.1-5.9c-0.7-1.9-1.7-3.7-3.1-5.2c-1.4-1.5-3.1-2.8-5.2-3.7c-2.1-0.9-4.5-1.4-7.3-1.4h-4.3
				c-0.5,0-1.1,0.1-1.6,0.4c-0.6,0.3-1.1,0.6-1.5,1c-0.4,0.4-0.7,0.7-0.9,1.1V19.7c0-6,4.9-10.8,10.8-10.8h85.8
				c6,0,10.8,4.9,10.8,10.8v57.8c-0.2-0.5-0.5-0.9-0.9-1.2c-0.4-0.4-0.9-0.7-1.5-1c-0.6-0.2-1.1-0.4-1.7-0.4c-0.7,0-1.4,0.1-1.9,0.4
				c-0.5,0.3-1.1,0.7-1.6,1.2l-7.1,10.2v-7.3c0-1.4-0.4-2.5-1.3-3.3c-0.9-0.8-1.9-1.1-3.1-1.1c-1.2,0-2.3,0.4-3.1,1.1
				c-0.9,0.8-1.3,1.8-1.3,3.3v23.1c0,1.4,0.4,2.5,1.3,3.3c0.9,0.8,1.9,1.1,3.1,1.1c1.2,0,2.2-0.4,3.1-1.1c0.9-0.8,1.3-1.9,1.3-3.3
				v-7.3l7.2,10.1c0.9,1.1,2.1,1.7,3.4,1.7c0.6,0,1.1-0.1,1.7-0.4c0.6-0.2,1.1-0.6,1.5-1c0.4-0.3,0.7-0.7,0.9-1.1v0.9
				C116.2,111.4,111.3,116.2,105.4,116.2z M17.1,98.1V83.9h0.8c1.2,0,2.3,0.2,3.2,0.6c0.9,0.4,1.7,0.9,2.3,1.5s1,1.4,1.3,2.2
				c0.3,0.8,0.4,1.7,0.4,2.5c0,0.9-0.1,1.8-0.5,2.7c-0.3,0.9-0.8,1.6-1.4,2.3c-0.6,0.7-1.4,1.2-2.2,1.7c-0.9,0.4-1.9,0.6-3.1,0.6
				L17.1,98.1L17.1,98.1z"/>
			<path class="st1" d="M79.5,61.1c2.8-1.5,4.8-3.3,4.8-3.3c1.9-1.6,3.4-3.8,3.3-4.9c0-1-1.6-1.1-3.5-0.2c-1.8,0.9-1.8,0.4,0-1.1
				s3.2-3.8,3.1-5c-0.2-1.3-2.1-1.3-4.3-0.1l-1.7,0.9c-2.2,1.2-2.3,0.9-0.3-0.5l2.1-1.5c2-1.4,3-3.4,2.2-4.4c-0.8-1-3.1-1-5.2-0.1
				c-2.1,0.9-2,0.6,0.1-0.7c2.1-1.3,3.1-3.4,2.2-4.7s-3.6-1.9-6-1.3L72.9,35c-1.7-1.7-6.5-5.8-7.4-6.5c-1.2-1.1-5.9-1.9-7-2.4
				c-1.4-0.7-2.7,0.2-4.8,1.4c-1.8,1-4.1,1.6-4.2,1.6c-0.6,0.3-0.5,1-0.1,1.6c-1.6-0.2-2.4,0.2-3,0.7c-1,0.7-1.7,2.1-1.6,3.1
				c0.1,0.9-0.5,2.1-1.2,2.6s-1.2,1.8-1,2.9s-0.2,2.4-0.9,3c-0.7,0.6-1.2,1.9-1,2.8s-0.3,2.3-1.1,3.1s-1.2,2.7-0.9,4.4
				c0.3,1.6,2.4,2.4,4.8,1.6l4.6-1.4c2.4-0.8,4.6-1.8,5.4-2.5c0.9-0.7,0-1.5-2.3-1.5l-4.6,0.1c-2.2,0-2.2-0.5,0.3-0.6l8-0.5
				c2.5-0.1,4.2-0.7,4.8-1.5c0.8-1.1-0.1-1.9-2.5-2.3l-7-1.1c-2.4-0.5-2-0.9,0.4-0.6l9.5,1c2.1,0.1,3.3-0.4,3.6-1.8
				c0.2-1.4-1.4-1.9-3.8-2.6l-6.4-1.5c-2.4-0.5-2.3-0.9,0.1-0.5l7.6,0.7c2.1,0.3,3.7-0.2,3.9-1.3c0.1-0.6-0.2-2-3.1-2.8
				c0,0-1.8-0.6-4.3-1c-1.7-0.3-3.9-0.6-3.9-0.6c-1.1-0.2,2.7-0.4,3.6-0.4c1-1.1-0.5-3.2-0.1-3.2c0.3,0,1.5,2.1,1.3,2.8
				c-0.1,0.4,0,0.8,1.2,0.4c0.9-0.2,1.5-1,1.9-0.9c0.2,0-1.1,1.1-0.6,1.4c0.1,0,2.9,0.9,2.9,0.9c2.2,0.9,2.2,1.8,2.6,1.9
				s2.6,0.5,3.8,0.4c-1.3,0.7-3.4,0.6-3.5,1.3c0,0.6,0.3,1-0.1,1.9c-0.5,1.1-1.4,0.8-1.7,1.9c-0.2,0.6,0,1.4-0.3,2.1
				c-0.7,1.9-1.7,1.6-2.5,2.5c-0.7,0.8-0.4,1.4-1.2,2.5c-0.6,0.8-2,1.4-3.3,1.8c-0.9,0.3-1.6,1.2-2.7,2.2c-1.1,1-3.6,2.3-6,3
				l-5.7,1.8c-4.7,1.8,3.7,5,6.5,5.4c7.9,1.3,15.7,0.9,21.8,0.3C76.1,62,77.7,62.1,79.5,61.1z"/>
			<path class="st1" d="M56.1,83.8c1.4,0,2.5-0.4,3.3-1.3c0.8-0.9,1.2-1.9,1.2-3.1c0-1.2-0.4-2.3-1.2-3.1s-1.9-1.3-3.3-1.3h-15
				c-2.9,0-4.4,1.5-4.4,4.4v23.1c0,3,1.5,4.4,4.4,4.4h15c1.4,0,2.5-0.4,3.3-1.3c0.8-0.9,1.2-1.9,1.2-3.1c0-1.2-0.4-2.3-1.2-3.1
				S57.5,98,56.1,98H45.5v-2.7h8.5c1.4,0,2.5-0.4,3.3-1.3c0.8-0.9,1.2-1.9,1.2-3.1c0-1.2-0.4-2.3-1.2-3.1s-1.9-1.3-3.3-1.3h-8.5
				v-2.7h10.6V83.8z"/>
			<path class="st1" d="M87.7,76.1c-0.9-0.8-1.9-1.1-3.1-1.1c-1.2,0-2.2,0.4-3.1,1.1c-0.9,0.8-1.3,1.8-1.3,3.3v9.7l-8-12.2
				c-0.7-1.3-1.8-2-3.4-2h-0.2c-1.2,0-2.2,0.4-3.1,1.1c-0.9,0.8-1.3,1.8-1.3,3.3v23.1c0,1.4,0.4,2.5,1.3,3.3
				c0.9,0.8,1.9,1.1,3.1,1.1c1.2,0,2.3-0.4,3.1-1.1c0.9-0.8,1.3-1.9,1.3-3.3v-9.1l7.8,11.6c0.1,0.1,0.2,0.3,0.4,0.5
				c0.2,0.2,0.4,0.4,0.7,0.6c0.3,0.2,0.7,0.4,1.1,0.5c0.4,0.1,0.9,0.2,1.6,0.2c1.2,0,2.3-0.4,3.1-1.1c0.9-0.8,1.3-1.9,1.3-3.3V79.4
				C89,78,88.5,76.9,87.7,76.1z"/>
		</g>
	</g>
</g>
</svg>
