<?xml version="1.0" encoding="utf-8"?>
<!-- Generator: Adobe Illustrator 22.0.1, SVG Export Plug-In . SVG Version: 6.00 Build 0)  -->
<svg version="1.1" id="Laag_1" xmlns="http://www.w3.org/2000/svg" xmlns:xlink="http://www.w3.org/1999/xlink" x="0px" y="0px"
	 viewBox="0 0 989.3 618.8" style="enable-background:new 0 0 989.3 618.8;" xml:space="preserve">
<style type="text/css">
	.st0{fill:none;stroke:#00FF00;}
	.st1{fill:#000058;}
	.st2{fill:#DC0000;}
	.st3{fill:#FFFFFF;}
	.st4{fill:#0404DE;}
</style>
<g>
	<path d="M709.8,258.5v-147c29.3-19.7,56.7-42.1,81.7-66.8l3.6-1.9v215.7H709.8z"/>
	<path class="st0" d="M170.2,471.9"/>
	<g>
		<path class="st1" d="M807.2,173.8c29.6,27.1,85.1,75.3,113.1,82.4c39.4,9.9,68.9-14.8,68.9-14.8
			C958.9,217.9,886.9,170.2,807.2,173.8z"/>
		<path class="st2" d="M420.8,98.7c42-24.6,100.8-45.7,174.6-44.6C381.5,3.5,177.2,0,177.2,0l56.5,138.1
			C233.7,138.1,319.9,157.8,420.8,98.7z"/>
		<path class="st3" d="M406,219.3c49.5-56.7,152.6-110.1,332.2-105.8c38.6,0.9,72.2,7.4,101.3,17.1c-93.6-55-176.9-62.2-244.1-76.5
			c-77.4-16.5-132.6,20-174.6,44.6c-100.9,59.1-187.1,39.4-187.1,39.4l0,0l56.9,139.1l0,0l-7.6-18.6C283,258.7,370.6,260,406,219.3z
			"/>
		<path class="st4" d="M989.3,241.4c0,0-44.6-76-149.7-110.9c-29-9.6-62.7-16.2-101.3-17.1c-179.6-4.3-282.7,49.1-332.2,105.8
			c-35.5,40.7-123,39.4-123,39.4l7.6,18.6l36.7,89.7c0,0,260.3-62.7,374.1-152.6c34.9-27.6,71.1-38.9,105.9-40.5
			C886.9,170.2,958.9,217.9,989.3,241.4z"/>
	</g>
	<path d="M401.2,376.3l-60.3-174.4c-30.1-3.2-59.4-9-87.9-16.8l108.5,265.2h79.5L549.4,185c-28.5,7.9-57.8,13.6-87.9,16.8
		L401.2,376.3z"/>
	<path d="M177.2,292.3l-48.3-158.5C81,106.8,37.6,72.9,0,33.4v585.4l87-60.7v-338l108.3,280.5l38.5-30.3V179.4
		c-19.3-6.1-38.2-13.3-56.5-21.4L177.2,292.3L177.2,292.3z"/>
	<path d="M709.8,240.1V430c-39.4,86.9-84.5,2.5-84.5,2.5V157.9c-11.6,5.1-23.3,9.9-35.3,14.3v235.7c0,44.3,48.4,160,123.9,150.9
		c75.5-9,81.2-111.6,81.2-111.6V240.1H709.8z"/>
</g>
</svg>
