<?xml version="1.0" encoding="utf-8"?>
<!-- Generator: Adobe Illustrator 22.0.1, SVG Export Plug-In . SVG Version: 6.00 Build 0)  -->
<svg version="1.1"
	 id="svg2985" inkscape:version="0.48.5 r10040" sodipodi:docname="9f068830c1459aeb6d1380670b007abb.pdf" xmlns:cc="http://creativecommons.org/ns#" xmlns:dc="http://purl.org/dc/elements/1.1/" xmlns:inkscape="http://www.inkscape.org/namespaces/inkscape" xmlns:rdf="http://www.w3.org/1999/02/22-rdf-syntax-ns#" xmlns:sodipodi="http://sodipodi.sourceforge.net/DTD/sodipodi-0.dtd" xmlns:svg="http://www.w3.org/2000/svg"
	 xmlns="http://www.w3.org/2000/svg" xmlns:xlink="http://www.w3.org/1999/xlink" x="0px" y="0px" viewBox="0 0 1000 383.8"
	 style="enable-background:new 0 0 1000 383.8;" xml:space="preserve">
<style type="text/css">
	.st0{clip-path:url(#SVGID_2_);}
	.st1{clip-path:url(#SVGID_4_);}
	.st2{fill:#007934;}
	.st3{clip-path:url(#SVGID_6_);}
	.st4{fill:#FFFFFF;}
</style>
<sodipodi:namedview  bordercolor="#666666" borderopacity="1" fit-margin-bottom="0.5" fit-margin-left="0.5" fit-margin-right="0.5" fit-margin-top="0.5" gridtolerance="10" guidetolerance="10" id="namedview2987" inkscape:current-layer="g2993" inkscape:cx="788.73096" inkscape:cy="66.082661" inkscape:pageopacity="0" inkscape:pageshadow="2" inkscape:window-height="1046" inkscape:window-maximized="0" inkscape:window-width="1057" inkscape:window-x="860" inkscape:window-y="-21" inkscape:zoom="0.37186418" objecttolerance="10" pagecolor="#ffffff" showgrid="false">
	</sodipodi:namedview>
<g id="g2993" transform="matrix(1.25,0,0,-1.25,-44.81286,422.19292)" inkscape:groupmode="layer" inkscape:label="9f068830c1459aeb6d1380670b007abb">
	<g id="g3025" transform="matrix(3.189361,0,0,3.189361,-79.364963,-68.045339)">
		<g>
			<defs>
				<rect id="SVGID_1_" x="-462.6" y="-205" width="1235.1" height="547.4"/>
			</defs>
			<clipPath id="SVGID_2_">
				<use xlink:href="#SVGID_1_"  style="overflow:visible;"/>
			</clipPath>
			<g id="g3027" class="st0">
				<g id="g3033" transform="translate(152.4687,98.3267)">
					<path id="path3035" inkscape:connector-curvature="0" d="M0,0c2.2,0,3.5,1.3,3.5,3.2c0,2-1.3,3.2-3.5,3.2h-3.5V0H0z M-3.5-3.8
						v-8.5h-4.4v22.6h8.4c4.5,0,7.4-3,7.4-7c0-4.1-3-7-7.4-7C0.5-3.8-3.5-3.8-3.5-3.8z"/>
				</g>
				<g id="g3037" transform="translate(171.2349,92.3744)">
					<path id="path3039" inkscape:connector-curvature="0" d="M0,0v0.7l-3.5-0.5c-1.1-0.2-1.9-0.8-1.9-2c0-0.9,0.7-1.8,2-1.8
						C-1.7-3.6,0-2.8,0,0 M-5,2.7l3.9,0.6C-0.3,3.4,0,3.8,0,4.4c0,1.1-0.9,2-2.6,2c-1.8,0-2.9-1.2-3-2.5l-3.8,0.8
						c0.3,2.5,2.5,5.2,6.7,5.2c5,0,6.8-2.8,6.8-6v-7.7c0-0.8,0.1-1.9,0.2-2.5H0.4C0.4-5.9,0.3-5.1,0.3-4.5C-0.5-5.7-2-6.8-4.3-6.8
						c-3.3,0-5.4,2.3-5.4,4.7C-9.7,0.7-7.6,2.3-5,2.7"/>
				</g>
				<g id="g3041" transform="translate(188.3602,97.499)">
					<path id="path3043" inkscape:connector-curvature="0" d="M0,0c-0.5,0.1-0.9,0.1-1.3,0.1c-2.2,0-4-1-4-4.4v-7.2h-4.2V4.2h4.1
						V1.9c1,2.1,3.1,2.5,4.5,2.5c0.3,0,0.7,0,1-0.1V0z"/>
				</g>
				<g id="g3045" transform="translate(196.5273,101.7007)">
					<path id="path3047" inkscape:connector-curvature="0" d="M0,0h3.2v-3.8H0v-6.6c0-1.4,0.6-1.8,1.8-1.8c0.5,0,1.1,0.1,1.3,0.1
						v-3.5c-0.4-0.2-1.1-0.4-2.4-0.4c-3.1,0-5,1.8-5,4.8v7.3H-7V0h0.8c1.7,0,2.4,1.1,2.4,2.5v2.2H0L0,0z"/>
				</g>
				<path id="path3049" inkscape:connector-curvature="0" d="M202.3,101.7h4.2V86h-4.2V101.7z M204.4,109.5c1.5,0,2.6-1.2,2.6-2.6
					c0-1.4-1.1-2.6-2.6-2.6c-1.4,0-2.6,1.2-2.6,2.6C201.8,108.3,203,109.5,204.4,109.5"/>
				<g id="g3051" transform="translate(212.3056,109.4994)">
					<path id="path3053" inkscape:connector-curvature="0" d="M0,0c1.5,0,2.6-1.2,2.6-2.6c0-1.4-1.1-2.6-2.6-2.6
						c-1.4,0-2.6,1.1-2.6,2.6C-2.6-1.2-1.4,0,0,0 M-2.1-7.8h4.2v-17c0-3-1.9-5.2-4.9-5.2c-1.2,0-2.2,0.3-2.4,0.4v3.5
						c0.3-0.1,0.7-0.2,1.3-0.2c1.3,0,1.8,0.7,1.8,1.8C-2.1-24.4-2.1-7.8-2.1-7.8z"/>
				</g>
				<g id="g3055" transform="translate(233.937,86.0398)">
					<path id="path3057" inkscape:connector-curvature="0" d="M0,0h-4.2l-6.4,15.7H-6l3.9-10.5l3.7,10.5h4.5L0,0z"/>
				</g>
				<g id="g3059" transform="translate(252.3441,93.8703)">
					<path id="path3061" inkscape:connector-curvature="0" d="M0,0c0,3-1.9,4.5-4,4.5C-6,4.5-8,3-8,0C-8-2.9-6-4.5-4-4.5
						C-1.9-4.5,0-3,0,0 M4.2,0c0-4.8-3.5-8.3-8.2-8.3c-4.7,0-8.2,3.5-8.2,8.3c0,4.8,3.5,8.3,8.2,8.3C0.7,8.3,4.2,4.8,4.2,0"/>
				</g>
				<g id="g3063" transform="translate(270.4054,93.8703)">
					<path id="path3065" inkscape:connector-curvature="0" d="M0,0c0,3-1.9,4.5-4,4.5C-6,4.5-8,3-8,0C-8-2.9-6-4.5-4-4.5
						C-1.9-4.5,0-3,0,0 M4.2,0c0-4.8-3.5-8.3-8.2-8.3s-8.2,3.5-8.2,8.3c0,4.8,3.5,8.3,8.2,8.3S4.2,4.8,4.2,0"/>
				</g>
				<g id="g3067" transform="translate(286.8334,97.499)">
					<path id="path3069" inkscape:connector-curvature="0" d="M0,0c-0.5,0.1-0.9,0.1-1.3,0.1c-2.2,0-4-1-4-4.4v-7.2h-4.2V4.2h4.1
						V1.9c1,2.1,3.1,2.5,4.5,2.5c0.3,0,0.7,0,1-0.1V0z"/>
				</g>
				<g id="g3071" transform="translate(151.2267,52.3165)">
					<path id="path3073" inkscape:connector-curvature="0" d="M0,0c2.2,0,3.9,1.7,3.9,4.5c0,2.8-1.7,4.4-3.9,4.4s-3.9-1.6-3.9-4.4
						C-3.9,1.7-2.2,0,0,0 M8-0.6c0-1,0.1-2.2,0.1-2.8H4C4-3.1,3.9-2.3,3.9-1.6C3.2-2.8,1.6-3.8-0.5-3.8c-4.5,0-7.6,3.5-7.6,8.2
						c0,4.6,3.1,8.2,7.5,8.2c2.7,0,4-1.1,4.4-1.9v8.9H8C8,19.6,8-0.6,8-0.6z"/>
				</g>
				<g id="g3075" transform="translate(172.9455,58.5237)">
					<path id="path3077" inkscape:connector-curvature="0" d="M0,0c-0.1,1.6-1.1,3.1-3.5,3.1C-5.7,3.1-6.9,1.4-7,0H0z M3.9-5.1
						c-0.8-2.7-3.3-5-7.1-5c-4.3,0-8.1,3.1-8.1,8.4c0,5,3.7,8.2,7.7,8.2c4.8,0,7.7-3.1,7.7-8.1c0-0.6-0.1-1.2-0.1-1.3H-7.1
						C-7-5-5.3-6.5-3.2-6.5c2,0,3.1,1,3.6,2.4C0.4-4.1,3.9-5.1,3.9-5.1z"/>
				</g>
				<g id="g3079" transform="translate(194.1946,52.985)">
					<path id="path3081" inkscape:connector-curvature="0" d="M0,0c3.7,0,6.8,2.3,6.8,7.2S3.7,14.4,0,14.4h-3.5V0H0z M-7.9-4.1v22.6
						h8.1c6.4,0,11.1-4.2,11.1-11.3S6.6-4.1,0.2-4.1C0.2-4.1-7.9-4.1-7.9-4.1z"/>
				</g>
				<path id="path3083" inkscape:connector-curvature="0" d="M208.4,64.6h4.2V48.9h-4.2V64.6z M210.5,72.3c1.5,0,2.6-1.2,2.6-2.6
					c0-1.4-1.1-2.6-2.6-2.6c-1.4,0-2.6,1.2-2.6,2.6C207.9,71.2,209.1,72.3,210.5,72.3"/>
				<g id="g3085" transform="translate(226.4717,58.5237)">
					<path id="path3087" inkscape:connector-curvature="0" d="M0,0c-0.1,1.6-1.1,3.1-3.5,3.1C-5.7,3.1-6.9,1.4-7,0H0z M3.9-5.1
						c-0.8-2.7-3.3-5-7.1-5c-4.3,0-8.1,3.1-8.1,8.4c0,5,3.7,8.2,7.7,8.2c4.8,0,7.7-3.1,7.7-8.1c0-0.6-0.1-1.2-0.1-1.3H-7.1
						C-7-5-5.3-6.5-3.2-6.5c2,0,3.1,1,3.6,2.4C0.4-4.1,3.9-5.1,3.9-5.1z"/>
				</g>
				<g id="g3089" transform="translate(242.8898,60.3698)">
					<path id="path3091" inkscape:connector-curvature="0" d="M0,0c-0.5,0.1-0.9,0.1-1.3,0.1c-2.2,0-4-1-4-4.4v-7.2h-4.2V4.2h4.1
						V1.9c1,2.1,3.1,2.5,4.5,2.5c0.4,0,0.7,0,1-0.1V0z"/>
				</g>
				<g id="g3093" transform="translate(255.2812,58.5237)">
					<path id="path3095" inkscape:connector-curvature="0" d="M0,0c-0.1,1.6-1.1,3.1-3.5,3.1C-5.7,3.1-6.9,1.4-7,0H0z M3.9-5.1
						c-0.8-2.7-3.3-5-7.1-5c-4.3,0-8.1,3.1-8.1,8.4c0,5,3.7,8.2,7.7,8.2c4.8,0,7.7-3.1,7.7-8.1c0-0.6-0.1-1.2-0.1-1.3H-7.1
						C-7-5-5.3-6.5-3.2-6.5c2,0,3.1,1,3.6,2.4C0.4-4.1,3.9-5.1,3.9-5.1z"/>
				</g>
			</g>
		</g>
	</g>
	<g id="g3097" transform="matrix(3.189361,0,0,3.189361,-79.364963,-68.045339)">
		<g>
			<defs>
				<polygon id="SVGID_3_" points="36.2,31.1 286.8,31.1 286.8,127.1 36.3,127.1 36.3,31.1 				"/>
			</defs>
			<clipPath id="SVGID_4_">
				<use xlink:href="#SVGID_3_"  style="overflow:visible;"/>
			</clipPath>
			<g id="g3099" class="st1">
				<g id="g3105" transform="translate(266.3832,48.9107)">
					<path id="path3107" inkscape:connector-curvature="0" d="M0,0h-4.2v15.7h4.1v-1.9c1,1.6,2.8,2.4,4.5,2.4c3.9,0,5.7-2.8,5.7-6.2
						V0H5.8v9.1c0,1.8-0.9,3.1-2.9,3.1C1.1,12.3,0,10.8,0,9V0z"/>
				</g>
				<g id="g3109" transform="translate(75.3167,126.424)">
					<path id="path3111" inkscape:connector-curvature="0" class="st2" d="M0,0c1.2,0.2,2.5,0.3,3.6,0.3c0.6,0,1.1,0.1,1.6,0.1
						C6.6,0.5,8,0.6,9.4,0.7c1-0.1,2.1,0,3.1-0.1c1.2-0.2,2.5-0.3,3.7-0.5c0.5-0.1,0.9,0,1.4-0.1c0.2,0,0.5-0.1,0.7-0.2
						c0.6-0.1,1.2,0.1,1.7-0.1c0.9-0.3,1.8-0.6,2.6-1c0.5-0.2,1.1-0.3,1.6-0.6c0.6-0.2,1.2-0.5,1.7-0.7c0.1,0,0.2,0,0.3,0
						C26.6-2.7,27-2.9,27.2-3c0.1-0.1,0.3-0.1,0.4-0.1c0.7-0.3,1.5-0.8,2.2-1.1c0.3-0.1,0.6-0.1,0.8-0.3c1.4-1,3-1.9,4.3-3.1
						c0.2-0.2,0.5-0.3,0.7-0.6c0.5-0.5,1.3-0.9,1.8-1.5c0.3-0.2,0.7-0.5,1-0.7c0.2-0.2,0.6-0.5,0.8-0.7c0.3-0.2,0.8-0.4,1-0.7
						c0.3-0.3,0.6-0.7,0.9-1c0.3-0.3,0.7-0.6,1-1c0.2-0.3,0.4-0.6,0.7-0.9c0.3-0.3,0.7-0.6,1-0.9c0.3-0.3,0.4-0.6,0.7-0.9
						c0.2-0.2,0.4-0.3,0.6-0.5c0.3-0.3,0.4-0.6,0.7-0.9c0.4-0.5,0.9-1,1.3-1.5c0-0.1,0.1-0.2,0.2-0.3c0.5-0.7,1.2-1.4,1.7-2
						c0.5-0.6,0.7-1.2,1.2-1.8c0.1-0.1,0.3-0.3,0.4-0.4c0.4-0.7,0.6-1.5,0.9-2.3c0.8-1.7,1.3-3.5,2.1-5.3c0.2-0.4,0.2-0.7,0.4-1.1
						c0.3-0.8,0.6-1.7,1-2.4c0.2-0.7,0.3-1.3,0.5-2c0.3-0.7,0.6-2.4,0.6-3.2c0-0.2,0.1-0.4,0.1-0.6c0.1-0.7,0.3-1.3,0.3-1.7
						c0-0.2,0.1-0.5,0.1-0.7c0-0.4,0.1-0.8,0.1-1.2c0.2-0.5,0.3-1.2,0.2-1.7c0-0.1,0-0.3,0.1-0.4c-0.1-1-0.1-2.3-0.2-3.3
						c-0.1-0.5,0.1-1,0-1.5c-0.3-1.7-0.6-3.5-1-5.2c-0.1-0.6-0.2-1.1-0.3-1.7c-0.1-0.2-0.2-0.5-0.3-0.7c-0.1-0.3,0-0.5-0.1-0.8
						c-0.1-0.3-0.3-0.7-0.4-1c-0.1-0.3,0-0.6-0.1-0.9c-0.8-2-1.8-3.9-2.7-5.9c-0.2-0.4-0.2-0.7-0.3-1.1c-0.4-1-1-2-1.4-3
						c-0.2-0.4-0.2-0.9-0.5-1.3c-0.2-0.4-0.8-0.8-1.1-1.3c-0.4-0.7-0.9-1.3-1.4-1.9c-0.3-0.4-0.5-0.7-0.8-1.1
						c-0.3-0.3-0.6-0.6-0.9-0.9c-0.1-0.1-0.2-0.3-0.3-0.4c-0.1-0.1-0.3-0.2-0.4-0.3c0-0.1,0-0.2-0.1-0.2c-0.1-0.1-0.2-0.1-0.2-0.1
						c-0.3-0.2-0.4-0.6-0.7-0.9c-0.1-0.1-0.2-0.1-0.3-0.2c-0.1-0.1-0.1-0.3-0.2-0.3c-0.1,0-0.1,0-0.2,0c-0.1-0.1-0.2-0.4-0.3-0.5
						c0-0.1-0.1-0.2-0.2-0.2c-0.1,0-0.1,0-0.2,0c-0.1-0.1-0.1-0.3-0.2-0.4c-0.2-0.2-0.5-0.4-0.7-0.7c-0.1-0.2-0.3-0.4-0.4-0.7
						c-0.1-0.1-0.2-0.1-0.3-0.2c-0.3-0.2-0.6-0.5-0.9-0.7c-0.2-0.1-0.3-0.2-0.5-0.3c-0.2-0.2-0.4-0.4-0.6-0.6
						c-0.4-0.3-0.8-0.5-1.1-0.7c-0.2-0.1-0.3-0.3-0.5-0.5c-0.1-0.1-0.3-0.1-0.4-0.2c0,0,0-0.1,0-0.2c-0.1-0.1-0.2,0-0.3-0.1
						c0-0.1,0-0.1,0-0.1c-0.2-0.2-0.4-0.2-0.6-0.3c-0.2-0.2-0.4-0.4-0.6-0.6c-0.2-0.1-0.3-0.2-0.5-0.3c0-0.1-0.1-0.1-0.1-0.2
						c-0.1-0.1-0.1,0.1-0.2,0c0,0,0-0.1,0-0.2c-0.2-0.2-0.4-0.4-0.6-0.5c-0.3-0.3-0.8-0.4-1.1-0.7c-0.1-0.1-0.1-0.2-0.2-0.3
						c-0.4-0.4-1-0.6-1.5-1c-0.3-0.2-0.5-0.5-0.9-0.7c-0.4-0.3-0.9-0.3-1.4-0.5c-0.6-0.3-1.2-0.6-1.9-0.8c0,0-0.4-0.1-0.5-0.1
						c-0.1,0-0.1,0.1-0.2,0.1c0,0-0.1-0.1-0.1-0.1c0,0,0,0,0-0.1c-0.1,0-0.2,0-0.3-0.1c-0.2-0.1-0.5-0.2-0.7-0.2
						c-0.2-0.1-0.4,0-0.5,0c-0.1,0-1-0.2-1.2-0.3c-1.1-0.4-2.6-0.5-3.9-0.8c-0.5-0.1-1-0.2-1.5-0.3c0,0-0.1,0.1-0.1,0.1
						c-0.2,0-0.4-0.1-0.7-0.1C17.1-94.9,17-95,16.6-95c-0.1-0.1-0.6-0.1-0.8-0.2c-0.9-0.3-1.8,0.1-2.8,0c-0.1,0.1-0.3,0.3-0.4,0.3
						c0,0,0,0,0,0c0-0.1-0.1-0.2-0.1-0.2c-0.1,0-0.3,0-0.4,0c-0.5,0.1-1.2,0.2-1.7,0.1c-0.3,0-0.6,0.1-0.8,0.2c-0.3,0-0.6-0.1-1-0.1
						c-0.4,0.1-0.9,0.1-1.3,0.2c-0.2,0-0.4,0-0.6-0.1c-0.1,0-0.1,0.1-0.2,0.1c-0.2,0-0.4,0-0.6,0c-0.1,0-0.2,0.1-0.3,0.1
						c-0.1,0,0-0.1-0.2-0.1c-0.6,0-1.4,0.1-2,0.1c-0.2,0-0.3,0-0.5-0.1c-0.3,0-0.8,0-1.1,0.1c-0.4,0.1-0.9-0.1-1.2,0
						c-0.2,0.1-0.6,0.1-0.8,0.2c-0.1,0.1-0.3,0.2-0.5,0.2c-0.1,0-0.1,0-0.2-0.1c-0.1,0-0.3,0.2-0.4,0.2c-0.1,0-0.2,0-0.3,0
						c-0.2,0-0.5,0.2-0.7,0.3c-0.1,0-0.2,0-0.4,0c-0.2,0-0.4,0.2-0.5,0.2c-0.4,0.1-0.8,0.1-1.1,0.2c-0.1,0-0.3,0.2-0.5,0.2
						c-0.2,0.1-0.4,0-0.6,0.1c-0.2,0.1-0.3,0.2-0.4,0.3c-0.1,0-0.2,0-0.2,0c-0.1,0-0.3,0.2-0.4,0.2c-0.3,0.2-0.6,0.3-1,0.4
						c-0.2,0.1-0.4,0.4-0.7,0.4c-0.1,0-0.2,0-0.3,0c-0.2,0.1-0.4,0.3-0.7,0.4c-0.7,0.4-1.4,0.6-2.1,0.9c-0.1,0.1-0.3,0.3-0.4,0.3
						c-0.4,0.2-0.9,0.3-1.3,0.5c-0.7,0.3-1.3,0.8-2,1.1c-0.1,0.1-0.3,0-0.5,0.1c-0.4,0.2-0.9,0.5-1.3,0.6c-0.2,0.1-0.4,0.1-0.6,0.1
						c-0.2,0.1-0.4,0.4-0.6,0.5c-0.5,0.4-1.1,0.8-1.6,1.2c-0.1,0-0.2,0-0.2,0.1c-0.4,0.2-0.7,0.5-1,0.7c-0.2,0.1-0.3,0.3-0.5,0.4
						c-0.7,0.4-1.4,1-2,1.5c-0.2,0.2-0.5,0.2-0.7,0.4c-0.1,0.1-0.1,0.2-0.2,0.3c-0.1,0-0.2,0-0.3,0.1c-0.1,0.1-0.1,0.2-0.2,0.3
						c-0.1,0.1-0.6,0.4-0.4,0.6c-0.1,0.1-0.3,0-0.3,0.1c-0.1,0.2-0.2,0.4-0.3,0.5c-0.3,0.5-0.8,0.9-1.2,1.3c-0.1,0.1,0,0.2-0.1,0.3
						c0,0.1-0.2,0-0.2,0.1c0,0.1,0,0.1,0,0.2c-0.1,0-0.2,0.1-0.2,0.1c-0.1,0.1-0.1,0.3-0.2,0.4c-0.1,0.1-0.2,0.1-0.2,0.2
						c0,0.1,0,0.1-0.1,0.2c-0.2,0.2-0.6,0.5-0.7,0.8c0,0,0,0.1,0,0.1c-0.1,0.1-0.5,0.5-0.7,0.7c-0.2,0.3-0.4,0.6-0.6,0.9
						c-0.1,0.1-0.2,0.2-0.3,0.2c-0.6,0.8-1.3,1.6-1.8,2.4c-0.3,0.5-0.4,1.1-0.7,1.6c-0.3,0.6-0.6,1.3-0.9,1.9
						c-0.1,0.2-0.1,0.5-0.2,0.7c-0.1,0.1-0.2,0.3-0.3,0.5c0,0.1,0,0.1,0,0.2c-0.1,0.2-0.2,0.5-0.3,0.7c-0.1,0.2-0.1,0.3-0.2,0.5
						c-0.5,1-0.9,2.2-1.4,3.3c-0.1,0.3-0.2,0.7-0.3,1c-0.7,1.8-1.2,3.8-1.6,6.2c-0.1,0.8-0.2,1.5-0.4,2.3c-0.1,0.3-0.2,1-0.2,1.3
						c0,0.1-0.2,1.1-0.3,1.3c-0.2,0.5-0.1,1.2-0.3,1.8c-0.1,0.2-0.2,0.6-0.2,0.8c0.1,1.1,0,2,0.1,3c0,0.2,0,0.4,0,0.6
						c0.3,1.9,0.1,4,0.3,5.8c0.1,0.8-0.1,1.7,0,2.5c0.1,0.5-0.1,0.9,0,1.3c0,0.1,0,0.3-0.1,0.4c0.1,0.8,0.4,1.6,0.6,2.4
						c0.1,0.4,0.2,0.7,0.2,1.1c0,0.1,0,0.2,0,0.3c0.3,0.7,0.7,1.3,1.1,1.9c0.4,0.7,0.6,1.3,1,2c0.3,0.5,0.6,1,0.9,1.4
						c0.4,0.8,0.8,1.6,1.3,2.4c0.4,0.6,0.9,1.2,1.3,1.8c0.3,0.6,0.8,1.2,1.1,1.8c0.1,0.2,0.3,0.5,0.4,0.7c0.1,0.2,0.3,0.3,0.5,0.4
						c0.1,0.2,0.3,0.3,0.4,0.5c0.4,0.4,0.7,0.7,1,1.1c0.7,0.8,1.3,1.7,2.1,2.5c0.2,0.2,0.3,0.5,0.5,0.7c1.1,1.1,1.9,2.3,3,3.3
						c0.3,0.3,0.6,0.8,0.9,1.1c0.7,0.6,1.7,1.1,2.5,1.6c1.7,1,3.4,2.1,5.1,3.1c1.2,0.7,2.7,1,4.1,1.6c0.6,0.3,1.4,0.6,2,0.9
						c0.4,0.2,0.7,0.2,1.1,0.3c1,0.4,2,0.9,3,1.3c0.3,0,0.6,0.1,0.8,0.1c0.8,0.3,1.7,0.2,2.5,0.5C-0.8-0.1-0.2-0.2,0,0"/>
				</g>
			</g>
		</g>
	</g>
	<g id="g3113" transform="matrix(3.189361,0,0,3.189361,-79.364963,-68.045339)">
		<g>
			<defs>
				<rect id="SVGID_5_" x="-462.6" y="-205" width="1235.1" height="547.4"/>
			</defs>
			<clipPath id="SVGID_6_">
				<use xlink:href="#SVGID_5_"  style="overflow:visible;"/>
			</clipPath>
			<g id="g3115" class="st3">
				<g id="g3121" transform="translate(90.4866,102.9728)">
					<path id="path3123" inkscape:connector-curvature="0" class="st4" d="M0,0c0,0.4-0.1,1,0,1.3c0.1,0.4,0.6,0.9,0.9,1.2
						c0.5,0.6,0.9,1.2,1.5,1.8C2.6,4.5,2.8,4.9,3,5.2c0.7,0.7,1.4,1.6,2,2.4c0.8,0.9,1.6,1.8,2.4,2.6c0.2,0.2,0.4,0.6,0.6,0.9
						c0.4,0.5,0.8,1.1,1.3,1.6c0.1,0.1,0.2,0.3,0.3,0.4c0.2,0.2,0.5,0.5,0.5,0.9c-0.2,0.2-0.4,0.7-0.6,0.9c0,0.1-0.1,0.2-0.1,0.3
						c-0.1,0.1-0.4,0.1-0.5,0.2C8.5,15.6,7.9,16,7.2,16c-0.1-0.1-0.1-0.1-0.2-0.2c-0.3-0.3-0.5-0.7-0.8-1c-0.2-0.2-0.3-0.4-0.4-0.6
						c-0.1-0.1-0.3-0.2-0.4-0.3c-0.2-0.2-0.2-0.4-0.3-0.7C5,13,4.8,12.8,4.6,12.6c-0.1-0.2-0.2-0.4-0.3-0.6
						c-0.8-1.3-1.9-2.5-2.6-3.9C1.6,7.8,1.5,7.5,1.3,7.1C1.3,7,1.1,6.9,1,6.7C0.8,6.2,0.6,5.8,0.3,5.3C0.3,5.2,0.3,5.1,0.2,5
						C0.1,4.8-0.2,4.1-0.4,4.1c0,0,0,0,0,0c-0.1,0.8-0.4,1.4-0.4,2c0,1.1-0.1,2.6-0.5,3.6c-0.1,0.3-0.1,0.6-0.2,0.9
						c-0.3,0.7-0.2,1.7-0.5,2.4c0,0.2-0.1,0.5-0.1,0.7c-0.1,0.5-0.2,1.4-0.3,1.8c-0.1,0.4,0,1-0.2,1.2c-0.2,0.1-0.4,0-0.6,0
						c-0.9,0.1-1.6-0.3-2.3-0.6c-0.3-0.1-0.9-0.3-0.9-0.5c-0.1-0.1,0.2-0.8,0.2-1c0.4-0.9,0.6-1.9,1-2.8c0.3-0.6,0.5-1.3,0.7-1.8
						c0,0,0-0.2,0-0.3c0-0.1,0.1-0.2,0.1-0.2c0-0.1,0-0.2,0.1-0.4c0.2-0.4,0.4-0.9,0.6-1.3c0-0.2,0.1-0.5,0.1-0.7
						c0.3-0.7,0.5-1.6,0.7-2.3C-2.8,4.6-2.8,4.3-2.7,4C-2.3,3-2.4,2.2-2.1,1.3c0.2-0.5,0-0.8,0.3-1.2C-1.3,0-0.5,0,0,0"/>
				</g>
				<g id="g3125" transform="translate(57.3602,107.969)">
					<path id="path3127" inkscape:connector-curvature="0" class="st4" d="M0,0c0,0,0-0.1,0-0.1c-0.3-0.2-0.5-0.6-0.7-0.9
						c-0.3-0.6-1-1.1-1.3-1.8C-2-3-2-3.2-2.1-3.4C-2.4-4.2-2.7-5-3-5.9c-0.1-0.2-0.3-0.5-0.4-0.7c0-0.2,0-0.5,0-0.7
						c-0.1-0.6-0.3-1.2-0.1-1.8c0-0.1,0-0.3,0-0.3c0-0.2,0-0.3,0.1-0.5c0-0.4-0.1-1,0.1-1.5c0.1-0.4,0.3-0.7,0.4-1
						c0.1-0.3,0.1-0.6,0.3-0.9c0.2-0.3,0.4-0.7,0.5-1.1c0-0.2,0.1-0.3,0.1-0.5c0.1-0.3,0.3-0.6,0.4-0.9c0.1-0.3,0.2-0.6,0.3-0.9
						c0.1-0.3,0.5-0.9,0.4-1.3c0.4-0.8,0.8-1.6,1.3-2.4c0.2-0.3,0.3-0.6,0.5-0.9c1-1.7,1.9-3.8,3-5.5C4-27.1,4.2-27.6,4.4-28
						c0.1-0.1,0.2-0.3,0.2-0.5c-0.2-0.2-0.5-0.3-0.8-0.4c-0.5-0.3-1.1-0.5-1.6-0.9c-1.1-0.7-2.1-1.4-3.1-2.2
						c-0.1-0.1-0.1-0.2-0.2-0.3c-0.2-0.2-0.4-0.2-0.5-0.4c-0.1-0.1-0.2-0.3-0.3-0.5c-0.2-0.2-0.5-0.4-0.7-0.7
						c-0.1-0.1-0.1-0.2-0.2-0.3c-0.2-0.2-0.5-0.3-0.6-0.5c-0.2-0.3-0.2-0.7-0.4-1.1c-0.5-1-1.2-2.1-1.5-3.3C-5.4-40-5.5-41-5.8-41.9
						c-0.1-0.6,0-1.4-0.1-2c0-0.2,0-0.3,0.1-0.5c0-0.6,0.2-2,0.3-2.4c0.1-0.5,0.1-1,0.2-1.5c0.6-1.5,1.5-2.5,2.5-3.5
						c0.2-0.3,0.4-0.6,0.6-0.8c0.2-0.2,0.4-0.4,0.6-0.6c0.1-0.1,0.1-0.2,0.2-0.3c0.2-0.1,0.4-0.3,0.6-0.4c0.1-0.1,0.3-0.4,0.5-0.4
						c0,0,0.1,0,0.1,0c0-0.1,0-0.1,0.1-0.2C0-54.7,0.3-54.9,0.5-55c0.7-0.5,1.5-0.8,2.3-1.1c0.4-0.2,0.8-0.5,1.2-0.7
						c0.2-0.1,0.5-0.1,0.7-0.2c0.3-0.1,0.6-0.4,0.9-0.4c0.7,0.1,1.4,0.1,2.1,0.2c0.9-0.1,2.9,0.2,3.7,0.5c0.2,0,0.4,0.1,0.6,0.1
						c0.5,0.2,1.1,0.2,1.5,0.4c0.2,0,0.4,0.1,0.6,0.1c0.4,0.2,0.8,0.5,1.2,0.7c0.5,0.3,1,0.4,1.4,0.7c0.2,0.2,0.4,0.4,0.6,0.6
						c0.2,0.2,0.5,0.2,0.7,0.4c0.8,0.7,1.8,1.2,2.7,1.9c0.3,0.2,0.7,0.7,1.2,0.7c0.1-0.3,0.3-0.4,0.4-0.6c0.2-0.3,0.4-0.7,0.5-1
						c0.5-0.8,0.8-1.8,1.2-2.7c0.2-0.4,0.6-0.9,0.9-1.3c0.6-0.9,1.3-1.8,1.9-2.6c0.1-0.1,0.1-0.2,0.2-0.4c0.3-0.4,0.7-0.7,1-1
						c0.1-0.2,0.2-0.3,0.4-0.5c0.4-0.3,0.8-0.6,1.2-0.9c0.6-0.6,1.1-1.1,1.8-1.5c0.2-0.2,0.5-0.4,0.7-0.6c0.1,0,0.3,0,0.4-0.1
						c0.3-0.1,0.7-0.2,1-0.2c0.6-0.1,1.2-0.3,1.8-0.5c0.3-0.1,0.5,0,0.8-0.1c0.2,0,0.4-0.1,0.5-0.2c0.6-0.2,1.3-0.1,1.9-0.2
						c0.2,0,0.5,0,0.7,0.1c0.7-0.1,1.8,0.1,2.5,0.4c0.4,0.1,0.7,0.2,1.1,0.2c0.7,0.3,1.4,0.7,2,1c0.4,0.2,0.8,0.2,1.2,0.5
						c0.2,0.1,0.3,0.4,0.5,0.6c0.3,0.3,0.5,0.5,0.8,0.8c0.4,0.4,1,0.7,1.5,1.2c0.3,0.3,0.6,1,0.8,1.4c0.2,0.3,0.4,0.6,0.6,0.9
						c0.7,1.3,1.3,2.7,1.8,4.1c0.4,0.9,0,2.4,0.1,3.4c0,0.3-0.1,0.6-0.1,0.9c0,0.6-0.1,1.4-0.2,2.1c0,0.2-0.1,0.3-0.1,0.5
						c0,0.4-0.2,1-0.4,1.5c-0.1,0.2-0.1,0.5-0.2,0.7c-0.1,0.1-0.2,0.3-0.3,0.4c0,0.1,0,0.2,0,0.3c-0.1,0.1-0.1,0.3-0.2,0.5
						c-0.1,0.1-0.2,0.3-0.3,0.4c0,0.1,0,0.1,0,0.2c0,0-0.1,0.1-0.1,0.1c-0.1,0.2-0.1,0.3-0.2,0.5c0,0.1-0.2,0.1-0.2,0.2
						c-0.2,0.4-0.3,0.7-0.5,1.1c-0.1,0.2-0.3,0.4-0.4,0.6c-0.2,0.3-0.2,0.6-0.4,0.8c-0.3,0.4-0.6,0.7-0.9,1
						c-0.2,0.2-0.2,0.4-0.4,0.6c-0.1,0.1-0.4,0.2-0.5,0.3c-0.1,0.1-0.4,0.6-0.4,0.8c0.6,0.4,1.3,0.8,2,1.2c0.7,0.4,1.4,0.6,1.9,1.1
						c0.9,0.8,1.9,1.6,2.8,2.4c0.5,0.4,0.9,0.9,1.4,1.4c0.5,0.4,0.9,0.8,1.4,1.2c0.1,0.1,0.3,0.2,0.5,0.3c0.3,0.3,0.6,0.6,0.9,0.9
						c0.2,0.1,0.4,0.4,0.6,0.5c0.2,0.1,0.3,0.1,0.5,0.2c0.4,0.3,0.8,0.7,1.3,1c0.3,0.2,0.7,0.4,1,0.6c0.1,0.1,0.1,0.3,0.2,0.4
						c0,0,0.1,0.1,0.1,0.1c0.1,0.2,0.2,0.4,0.3,0.6c0.2,0.4,0.5,0.7,0.8,1c0,0,0,0.1,0,0.1c0,0.1,0.2,0.1,0.2,0.2
						c0.1,0.1,0,0.3,0,0.5c0.1,0.5,0.2,1,0.3,1.6c0.2,1.1,0.3,2.3,0.4,3.4c0,0.2,0,0.3,0,0.5c0,0.5,0.1,1.3,0,1.8c0,0.1,0,0.3,0,0.4
						c-0.1,0.6-0.2,1.2-0.3,1.7c-0.4,1-1,1.9-1.5,2.7c-0.1,0.2-0.2,0.5-0.4,0.7c-0.1,0.2-0.3,0.3-0.4,0.5c-0.1,0.2-0.1,0.3-0.1,0.4
						C59.6-9,59-8,58.4-7.2c-0.2,0.2-0.2,0.5-0.4,0.7c-0.2,0.3-0.6,0.4-0.8,0.7c-0.1,0.1-0.2,0.3-0.4,0.4c-0.1,0.1-0.4,0.1-0.5,0.1
						c-0.2,0.1-0.4,0.2-0.6,0.3c-0.1,0-0.3,0.1-0.4,0.1c-0.2,0.1-0.4,0.3-0.6,0.4c-0.1,0.1-0.2,0-0.4,0.1C54.2-4.2,54-4.1,53.9-4
						c-0.4,0.1-0.7,0.2-1.1,0.3c-0.6,0.2-1.2,0.5-1.7,0.6c-0.3,0.1-0.5,0-0.7,0.1c-0.7,0.2-1.4,0.6-2.2,0.7c-0.2,0-0.3,0-0.5,0
						c-0.3,0-0.6,0.1-0.9,0.1c-0.3,0-0.6-0.1-0.8-0.1c-2.4,0.2-5.1-0.9-6.9-1.7c-0.6-0.3-1.2-0.3-1.8-0.6c-0.6-0.3-1.1-0.7-1.6-1
						c-1.1-0.7-2-1.3-3-2.1c-0.4-0.4-1.3-1.2-1.9-1.2c-0.1,0.1-0.2,0.2-0.1,0.4c-0.1,0-0.2,0.1-0.2,0.1C30.1-8,30-7.5,29.6-7.1
						c-0.2,0.2-0.5,0.4-0.7,0.7c-0.2,0.3-0.4,0.7-0.6,1c-0.4,0.5-1,1-1.4,1.6c-0.3,0.3-0.5,0.6-0.7,0.9c-0.1,0.1-0.1,0.2-0.2,0.4
						c-0.1,0-0.2,0.1-0.3,0.1c-0.1,0.1-0.1,0.3-0.2,0.4c0,0-0.2,0.1-0.2,0.2c-0.1,0.2-0.2,0.4-0.3,0.6c-0.2,0.3-0.6,0.6-0.8,0.8
						c-0.2,0.3-0.3,0.7-0.5,1c-0.2,0.2-0.5,0.3-0.6,0.4c-0.2,0.1-0.3,0.4-0.5,0.5c-0.2,0.1-0.4,0.1-0.5,0.3
						c-0.4,0.4-0.7,0.9-1.2,1.1c-0.1,0.1-0.3,0.1-0.4,0.1C20.4,3,20.2,3.2,20,3.3c-0.1,0.1-0.3,0.1-0.4,0.2
						c-0.1,0.1-0.2,0.2-0.3,0.3c-0.1,0-0.2,0-0.3,0.1c-0.1,0.1-0.3,0.2-0.4,0.3c-0.4,0.2-0.9,0.3-1.3,0.6c-0.2,0.1-0.4,0.3-0.5,0.3
						c-0.1,0-0.2,0-0.4,0c-0.4,0-0.8,0.1-1.2,0.2c-0.1,0-0.2,0-0.3,0c-0.4,0-0.8,0.1-1.2,0.2c-0.5,0.1-1.1,0-1.5,0.1
						c-0.2,0-0.5,0-0.7-0.1c-0.5,0-1.4,0-1.9-0.1C9.1,5,8.4,5.1,7.9,4.9C5.7,4,3.8,3,2.1,1.8C1.8,1.6,1.6,1.4,1.4,1.2
						C1.1,1,0.7,0.9,0.5,0.6C0.3,0.5,0.3,0.1,0,0"/>
				</g>
			</g>
		</g>
	</g>
</g>
</svg>
