<?xml version="1.0" encoding="utf-8"?>
<!-- Generator: Adobe Illustrator 22.0.1, SVG Export Plug-In . SVG Version: 6.00 Build 0)  -->
<svg version="1.1" id="Laag_1" xmlns="http://www.w3.org/2000/svg" xmlns:xlink="http://www.w3.org/1999/xlink" x="0px" y="0px"
	 viewBox="0 0 973.5 587.6" style="enable-background:new 0 0 973.5 587.6;" xml:space="preserve">
<style type="text/css">
	.st0{fill:#1D1D1B;}
</style>
<g>
	<path class="st0" d="M230.5,319.7V5.6C99.1,35.3,0.7,152.9,0.7,293c0,162.4,132.1,294.6,294.6,294.6c87,0,165.3-37.9,219.2-98
		L244.4,343.3C231.6,336.3,230.5,319.7,230.5,319.7z M181.9,521.8c-33.3-16.6-62.5-40.3-85.7-69c-6.1-13,2.1-17.8,2.1-17.8
		l84.4-48.7c7.8-4.5,8.6,7.9,8.6,7.9v107.6h0C191.4,524.1,183,522.1,181.9,521.8z M191.4,319.7c0,0-0.9,16.9-12.5,23.6L76.4,402.4
		c-8.5,1.2-13.6-4.2-13.8-4.3C48,366,39.9,330.5,39.9,293c0-100.4,58.3-187.5,142.8-229.2c7.3-3.7,8.7,9,8.7,9V319.7z M435.6,491.3
		l0.7,0.4c2.1,1.3,7.9,5.9-0.6,14.6c-40.3,26.6-88.6,42.2-140.4,42.2c-20.4,0-40.2-2.4-59.3-7c-3.9-1-5.2-6.8-5.6-11.8V394.1
		c0-13.5,8.5-9.3,8.6-9.2L435.6,491.3L435.6,491.3z"/>
	<path class="st0" d="M963.6,152.8c7.1-13.3,10.6-29.8,10.6-49.4c0-25.4-6.1-46.1-18.5-62.1c-12.3-16-27.6-26.4-45.9-31.2
		C898,7,872.5,5.4,833.4,5.4H730.1v64.7c-4.9-17.3-14.2-31.9-27.9-43.8C682,8.8,651.9,0,611.9,0c-24.5,0-45.4,3.7-62.7,11.1
		c-17.3,7.4-30.6,18.2-39.8,32.3c-2.1,3.2-4,6.5-5.6,9.9c-2.2-4.2-4.7-8.1-7.5-11.8c-12.3-16-27.6-26.4-45.9-31.2
		C438.5,7,413,5.4,373.9,5.4H270.6v318.7v0h64.4V203.9h42c29.1,0,51.4-1.5,66.8-4.6c11.3-2.5,22.4-7.5,33.4-15.1
		c10.9-7.6,20-18.1,27.1-31.4c2.6-4.9,4.7-10.2,6.4-15.9c4,5.7,8.8,11.1,14.5,16.1c13.9,12.5,38.1,23,72.6,31.5
		c26.8,6.7,44,11.3,51.5,13.9c11,3.9,18.7,8.5,23.2,13.8c4.4,5.3,6.6,11.7,6.6,19.2c0,11.7-5.3,22-15.8,30.8
		c-10.5,8.8-26.1,13.2-46.8,13.2c-19.6,0-35.1-4.9-46.6-14.8c-11.5-9.9-19.2-25.3-22.9-46.3l-62.6,6.1c4.2,35.7,17.1,62.8,38.7,81.4
		c21.6,18.6,52.5,27.9,92.8,27.9c27.7,0,50.8-3.9,69.4-11.6c18.5-7.7,32.9-19.6,43-35.5c0.7-1.2,1.4-2.3,2.1-3.5v45v0h64.4V203.9
		h41.9c29.1,0,51.4-1.5,66.8-4.6c11.3-2.5,22.4-7.5,33.4-15.1C947.4,176.6,956.5,166.2,963.6,152.8z M441.1,129.1
		c-4.9,7.1-11.6,12.3-20.1,15.7c-8.5,3.3-25.5,5-50.9,5h-35.2V59.3H366c23.2,0,38.6,0.7,46.3,2.2c10.4,1.9,19.1,6.6,25.9,14.1
		c6.8,7.5,10.2,17.1,10.2,28.7C448.4,113.8,446,122,441.1,129.1z M695.2,148.2c-15-7.9-38.2-15.5-69.5-22.9
		c-31.3-7.4-51-14.5-59.1-21.3c-6.4-5.4-9.6-11.8-9.6-19.4c0-8.3,3.4-14.8,10.2-19.8c10.6-7.7,25.2-11.5,43.9-11.5
		c18.1,0,31.7,3.6,40.8,10.8c9.1,7.2,15,19,17.7,35.3l60.4-2.7V180C721.6,166.6,710,155.9,695.2,148.2z M900.6,129.1
		c-4.9,7.1-11.6,12.3-20.1,15.7c-8.5,3.3-25.5,5-50.9,5h-35.2V59.3h31.1c23.2,0,38.6,0.7,46.3,2.2c10.4,1.9,19,6.6,25.9,14.1
		c6.8,7.5,10.2,17.1,10.2,28.7C907.9,113.8,905.5,122,900.6,129.1z"/>
	<path class="st0" d="M804.7,229.7v18.2h8.8c-0.1,3.7-0.9,6.5-2.5,8.7c-1.6,2.1-4.2,3.8-7.8,5l3.6,7.5c3.9-1.4,7.1-3.3,9.6-5.7
		c2.5-2.4,4.2-5.1,5.1-8.2c0.9-3,1.4-7.2,1.4-12.4v-13H804.7L804.7,229.7z"/>
	<path class="st0" d="M867,229c-8.8,0-16.1,2.9-21.8,8.8c-5.7,5.9-8.6,13.6-8.6,23.2c0,9.2,2.7,16.7,8.1,22.5
		c5.4,5.8,11.8,8.6,19.3,8.6c6.8,0,12.6-2.7,17.1-8c-0.7,10.9-2.4,18-5,21.5c-2.6,3.4-5.8,5.2-9.6,5.2c-3,0-5.4-0.9-7.2-2.6
		c-1.8-1.7-2.9-4.4-3.4-7.9l-17.6,1.9c1.3,7.8,4.2,13.7,8.8,17.7c4.6,3.9,10.6,5.9,18,5.9c10.3,0,18.7-3.8,25.1-11.5
		c6.4-7.7,9.6-20.2,9.6-37.5c0-17-3.1-29.2-9.2-36.7C884.4,232.8,876.6,229,867,229z M875.9,274.7c-2.4,2.8-5.3,4.1-8.8,4.1
		c-3.6,0-6.6-1.4-9-4.3c-2.4-2.9-3.6-7.4-3.6-13.5c0-6,1.1-10.4,3.3-13c2.2-2.6,5-4,8.4-4c3.5,0,6.6,1.6,9.3,4.8
		c2.7,3.2,4,7.8,4,13.6C879.5,267.9,878.3,272,875.9,274.7z"/>
	<path class="st0" d="M951.5,291.8c5.7-5.3,9.7-9.3,11.9-12.1c3.3-4.2,5.7-8.3,7.3-12.1c1.5-3.9,2.3-7.9,2.3-12.2
		c0-7.5-2.7-13.8-8-18.8c-5.3-5-12.7-7.6-22-7.6c-8.5,0-15.6,2.2-21.3,6.5c-5.7,4.4-9.1,11.5-10.1,21.5l18.1,1.8
		c0.3-5.3,1.6-9.1,3.9-11.4c2.2-2.3,5.3-3.4,9-3.4c3.8,0,6.8,1.1,9,3.3c2.2,2.2,3.3,5.3,3.3,9.3c0,3.7-1.2,7.4-3.7,11.1
		c-1.9,2.7-6.9,7.9-15.1,15.5c-10.2,9.4-17,17-20.4,22.7c-3.4,5.7-5.5,11.8-6.2,18.1h63.7v-16.9v0h-36.1c0.9-1.6,2.2-3.3,3.7-5
		C942.1,300.5,945.8,297,951.5,291.8z"/>
</g>
</svg>
