<?xml version="1.0" encoding="utf-8"?>
<!-- Generator: Adobe Illustrator 22.0.1, SVG Export Plug-In . SVG Version: 6.00 Build 0)  -->
<svg version="1.1" id="Laag_1" xmlns="http://www.w3.org/2000/svg" xmlns:xlink="http://www.w3.org/1999/xlink" x="0px" y="0px"
	 viewBox="0 0 346.2 115.9" style="enable-background:new 0 0 346.2 115.9;" xml:space="preserve">
<style type="text/css">
	.st0{fill:#E30613;}
</style>
<g>
	<path class="st0" d="M36,77.2c-2,0-5.5,0.2-10.5-0.2v38.7H0V4c12.1-0.9,27-1.3,39.1-1.3c21.6,0,38.8,11.8,38.8,36.6
		C77.9,61.3,57,77.2,36,77.2z M34.8,25l-9.3,0.2v29.7h6c8.9-0.3,19.2-2.2,19-15.6C50.4,28.2,45.5,25.2,34.8,25z"/>
</g>
<path class="st0" d="M133.2,115.8h-15.1L83.4,45.1h24.4l17.7,36.5l16.8-36.5h23.8L133.2,115.8z"/>
<path class="st0" d="M207.6,115.9l-32.3-0.1v-70c5.6-0.4,9.2-0.8,10.6-0.8c7.3-0.3,14.9-0.3,23.2-0.2c25.2,0.5,38.6,16.4,38.7,35.4
	C247.9,97.8,234.5,115.6,207.6,115.9z M206.6,64.3h-9.2v32.4h9c6.1-0.2,17.5-1.8,17.5-16.5C224,67.2,212.6,64.6,206.6,64.3z"/>
<path class="st0" d="M320.5,115.8L311,88.2h-27.2l-10,27.6H249L291.5,0h14.7l40,115.8H320.5z M297.8,44.9l-7.6,21.9h14.2L297.8,44.9
	z"/>
</svg>
