<?xml version="1.0" encoding="utf-8"?>
<!-- Generator: Adobe Illustrator 22.0.1, SVG Export Plug-In . SVG Version: 6.00 Build 0)  -->
<svg version="1.1" id="pvv" xmlns="http://www.w3.org/2000/svg" xmlns:xlink="http://www.w3.org/1999/xlink" x="0px" y="0px"
	 viewBox="0 0 195.4 43.2" style="enable-background:new 0 0 195.4 43.2;" xml:space="preserve">
<style type="text/css">
	.st0{fill:none;}
	.st1{fill:#1E4973;}
	.st2{fill:none;stroke:#231F20;stroke-width:1.14;}
	.st3{fill:#ED1A3B;}
	.st4{fill:#FFFFFF;}
	.st5{fill:#B1B3B6;}
	.st6{fill:#231F20;}
</style>
<g>
	<g>
		<g id="Layer_1">
			<g>
				<polyline class="st0" points="0.8,25 44.2,25 44.2,0.7 0.8,0.7 				"/>
				<path class="st1" d="M0.4,0.5C2.6,2.8,4.9,5,7.4,7c3.9,3,8,5.7,12.2,8.2c3.5,2.1,7.3,3.8,11.2,5.1c2.4,0.4,5.8,1.1,5.8,1.1
					l3.5-6.9l0.5-1.3c0,0-12.6-4.4-13.9-5.5c-1.3-1.2-1.1-1-3.6-1.4S8,3.6,4.6,2.3C3.1,1.9,1.7,1.3,0.4,0.5"/>
				<path class="st2" d="M0.4,0.5C2.6,2.8,4.9,5,7.4,7c3.9,3,8,5.7,12.2,8.2c3.5,2.1,7.3,3.8,11.2,5.1c2.4,0.4,5.8,1.1,5.8,1.1
					l3.5-6.9l0.5-1.3c0,0-12.6-4.4-13.9-5.5c-1.3-1.2-1.1-1-3.6-1.4S8,3.6,4.6,2.3C3.1,1.9,1.7,1.3,0.4,0.5"/>
				<path class="st1" d="M47.7,14.8c0,0,9.5-0.1,12.7,0c3.2,0.1,5.7,0.1,5.7,0.1s4.3,1,7.7,1.7c3.3,0.6,7.6,1.1,9.4,1.3
					s3.6,0.4,3.6,0.4s1.7,0.3-6.7,2.2c-5.8,1.4-11.7,2.5-17.7,3.3c-4.7,0.6-9.4,0.7-14,0.3c-1.2-0.2-2.3-0.5-3.4-0.9
					c0,0,1.7-4.3,2.3-5.8C47.5,16.5,47.7,15.7,47.7,14.8"/>
				<path class="st2" d="M47.7,14.8c0,0,9.5-0.1,12.7,0c3.2,0.1,5.7,0.1,5.7,0.1s4.3,1,7.7,1.7c3.3,0.6,7.6,1.1,9.4,1.3
					s3.6,0.4,3.6,0.4s1.7,0.3-6.7,2.2c-5.8,1.4-11.7,2.5-17.7,3.3c-4.7,0.6-9.4,0.7-14,0.3c-1.2-0.2-2.3-0.5-3.4-0.9
					c0,0,1.7-4.3,2.3-5.8C47.5,16.5,47.7,15.7,47.7,14.8z"/>
				<path class="st3" d="M36.2,22.7l-8.8,3.2c0,0,2.9,5.8,6,7.3c3.6,1.8,6.2,1.8,10.6,0c1.5-0.6,2.9-1.5,4-2.7l-4-6l-5.4-1
					L36.2,22.7z"/>
				<path class="st2" d="M36.2,22.7l-8.8,3.2c0,0,2.9,5.8,6,7.3c3.6,1.8,6.2,1.8,10.6,0c1.5-0.6,2.9-1.5,4-2.7l-4-6l-5.4-1
					L36.2,22.7z"/>
				<path class="st4" d="M40.3,13.2l2.2-0.6c0.2-0.6,0.6-1.1,1.1-1.6c0.2-0.3,0.4-0.6,0.7-0.8c1.2-0.5,1.3-0.7,2-0.1
					c0.5,0.7,0.8,1.5,1,2.4l0.3,1.1l0.3,0.9c0,1.2-0.3,2.4-0.8,3.5c-1.4,4-1.3,4.7-3,6.3c-0.8,0.8-1.7,1.6-2.6,2.4l-0.9,1.8
					c0,0-0.5,3.3-1.2,3.5c-0.4,0.1-0.8-0.2-0.9-0.7c0-0.3,0-0.5,0.3-0.7c0.6-1,1.1-2,1.4-3.1c0,0,0-0.6-0.8,0
					c-0.7,0.2-1.3,0.7-1.5,1.4c-0.4,0.7-0.7,1.4-0.9,2.2c-0.3-0.6-0.3-1.2-0.2-1.8c0.1-0.9,0.1-1.8-0.1-2.7c-0.2-1.5-0.2-3,0-4.5
					c0.4-1.1,1.6-4.1,2.4-5.7C39.5,15.4,39.9,14.3,40.3,13.2"/>
				<path class="st2" d="M40.3,13.2l2.2-0.6c0.2-0.6,0.6-1.1,1.1-1.6c0.2-0.3,0.4-0.6,0.7-0.8c1.2-0.5,1.3-0.7,2-0.1
					c0.5,0.7,0.8,1.5,1,2.4l0.3,1.1l0.3,0.9c0,1.2-0.3,2.4-0.8,3.5c-1.4,4-1.3,4.7-3,6.3c-0.8,0.8-1.7,1.6-2.6,2.4l-0.9,1.8
					c0,0-0.5,3.3-1.2,3.5c-0.4,0.1-0.8-0.2-0.9-0.7c0-0.3,0-0.5,0.3-0.7c0.6-1,1.1-2,1.4-3.1c0,0,0-0.6-0.8,0
					c-0.7,0.2-1.3,0.7-1.5,1.4c-0.4,0.7-0.7,1.4-0.9,2.2c-0.3-0.6-0.3-1.2-0.2-1.8c0.1-0.9,0.1-1.8-0.1-2.7c-0.2-1.5-0.2-3,0-4.5
					c0.4-1.1,1.6-4.1,2.4-5.7C39.5,15.4,39.9,14.3,40.3,13.2z"/>
				<path class="st5" d="M39.5,27.7c-0.4,0.1-0.8,0.3-1.1,0.6c-0.6,0.5-1.3,1.3-1.3,1.3s-0.4,0.9-0.5,0.4c-0.1-0.3-0.1-0.6,0-0.9
					c0,0-0.2-0.5-0.2-0.7c-0.2-0.6-0.3-1.2-0.3-1.8c-0.2-1.4-0.2-2.9-0.1-4.3c0.1-0.4,0.2-0.7,0.4-1.1l1.2-2.2l1.3-2.7l1.4-3.2
					l1.3-0.4l1-0.3c0,0,0.4-0.6,0.7-1.1c0.2-0.3,0.4-0.6,0.7-0.8c0.3-0.3,0.6-0.5,1-0.5l0.1,0.9c0,0,0,4.3,0,5.3
					c0.2,1,0.1,2.1-0.3,3c-0.5,1.3-1.1,2.6-1.8,3.8C42,24.7,40,27.7,40,27.7C39.9,27.6,39.7,27.6,39.5,27.7"/>
				<path class="st2" d="M39.5,27.7c-0.4,0.1-0.8,0.3-1.1,0.6c-0.6,0.5-1.3,1.3-1.3,1.3s-0.4,0.9-0.5,0.4c-0.1-0.3-0.1-0.6,0-0.9
					c0,0-0.2-0.5-0.2-0.7c-0.2-0.6-0.3-1.2-0.3-1.8c-0.2-1.4-0.2-2.9-0.1-4.3c0.1-0.4,0.2-0.7,0.4-1.1l1.2-2.2l1.3-2.7l1.4-3.2
					l1.3-0.4l1-0.3c0,0,0.4-0.6,0.7-1.1c0.2-0.3,0.4-0.6,0.7-0.8c0.3-0.3,0.6-0.5,1-0.5l0.1,0.9c0,0,0,4.3,0,5.3
					c0.2,1,0.1,2.1-0.3,3c-0.5,1.3-1.1,2.6-1.8,3.8C42,24.7,40,27.7,40,27.7C39.9,27.6,39.7,27.7,39.5,27.7z"/>
				<path class="st6" d="M45,11.3c-0.5,0.5-0.9,1.1-1.1,1.8c0,0.5,0.2,1,0.5,1.4l0.5-0.2c0.4-0.3,0.5-0.8,0.5-1.3
					C45.3,12.4,45,11.3,45,11.3"/>
				<path class="st2" d="M45,11.3c-0.5,0.5-0.9,1.1-1.1,1.8c0,0.5,0.2,1,0.5,1.4l0.5-0.2c0.4-0.3,0.5-0.8,0.5-1.3
					C45.3,12.4,45,11.3,45,11.3z"/>
				<path class="st6" d="M43.8,11.4c0.1,0,0.3,0,0.3-0.2s0-0.3-0.2-0.3c-0.1,0-0.3,0-0.3,0.2c0,0,0,0,0,0.1
					C43.6,11.3,43.7,11.4,43.8,11.4"/>
				<ellipse class="st2" cx="43.8" cy="11.2" rx="0.2" ry="0.2"/>
				<path class="st6" d="M41.3,26.8V26l-1.1,1.4l-0.4,1c-0.2,0.5-0.3,0.9-0.6,1.4c-0.3,0.4-0.6,0.8-0.8,1.3c-0.1,0.2,0,0.5,0.2,0.6
					c0.1,0.2,0.4,0.3,0.6,0.2c0.4-0.3,0.6-0.7,0.8-1.2c0-0.4,0.4-1.6,0.4-1.9c0.2-0.6,0.4-1.1,0.8-1.6l0.3-0.5L41.3,26.8z"/>
				<path class="st6" d="M38.6,26.5v-0.7l-1.1,1.4l-0.4,1c-0.2,0.5-0.3,0.9-0.6,1.4c-0.3,0.4-0.6,0.8-0.8,1.3
					c-0.1,0.2,0,0.5,0.2,0.7c0.2,0.2,0.4,0.2,0.7,0.2c0.4-0.3,0.6-0.7,0.8-1.2c0.2-0.6,0.3-1.3,0.4-1.9c0.2-0.6,0.4-1.1,0.8-1.6
					l0.3-0.5L38.6,26.5z"/>
				<path class="st2" d="M38.6,26.5v-0.7l-1.1,1.4l-0.4,1c-0.2,0.5-0.3,0.9-0.6,1.4c-0.3,0.4-0.6,0.8-0.8,1.3
					c-0.1,0.2,0,0.5,0.2,0.7c0.2,0.2,0.4,0.2,0.7,0.2c0.4-0.3,0.6-0.7,0.8-1.2c0.2-0.6,0.3-1.3,0.4-1.9c0.2-0.6,0.4-1.1,0.8-1.6
					l0.3-0.5L38.6,26.5z"/>
				<path class="st6" d="M46.9,12.2c0.1,0,0.3,0,0.3-0.2s0-0.3-0.2-0.3c-0.1,0-0.3,0-0.3,0.2c0,0,0,0,0,0.1
					C46.7,12.1,46.8,12.2,46.9,12.2"/>
				<ellipse class="st2" cx="46.9" cy="12" rx="0.2" ry="0.2"/>
				<path class="st6" d="M134.2,40.6h4.6v-0.9h-3.5v-2.6h3v-0.9h-3v-2.2h3.4v-0.9h-4.5L134.2,40.6L134.2,40.6L134.2,40.6z
					 M127.1,39.7V34h0.8c2.2,0,3.3,0.8,3.3,2.8c0.1,1.5-1,2.8-2.5,2.9c-0.2,0-0.5,0-0.7,0H127.1z M126,40.6h1.9
					c3.1,0,4.5-1.6,4.5-3.8s-1.4-3.6-4.4-3.6h-2V40.6z M116.8,36.4V34h1c1.1,0,1.7,0.4,1.7,1.2s-0.5,1.2-1.6,1.2H116.8L116.8,36.4z
					 M115.7,40.6h1.1v-3.3h0.1c0.5,0,0.6,0,1.4,1.2l1.6,2.2h1.3l-1.9-2.5c-0.2-0.4-0.5-0.7-0.9-1l0,0c1.1,0.1,2.1-0.7,2.2-1.8
					c0,0,0-0.1,0-0.1c0-1.2-1-2.1-2.2-2.1c-0.2,0-0.3,0-0.5,0.1h-2.2v7.5L115.7,40.6z M110,39.8c-1.6,0.1-3.1-1.1-3.2-2.8
					s1.1-3.1,2.8-3.2s3.1,1.1,3.2,2.8c0,0.1,0,0.2,0,0.3c0.1,1.5-1,2.8-2.5,2.9C110.2,39.9,110.1,39.9,110,39.8 M110.1,40.8
					c2.1,0,3.9-1.8,3.8-3.9c0-2.1-1.8-3.9-3.9-3.8c-2.1,0-3.9,1.8-3.8,3.9c0,2.1,1.6,3.8,3.7,3.8C109.9,40.8,110,40.8,110.1,40.8
					 M101,39.9c-1.6,0.1-3.1-1.1-3.2-2.7c-0.1-1.6,1.1-3.1,2.7-3.2c1.6-0.1,3.1,1.1,3.2,2.7c0,0.1,0,0.2,0,0.3
					c0.1,1.5-1,2.8-2.5,2.9C101.1,39.9,101,39.9,101,39.9 M101,40.8c2.1,0,3.9-1.8,3.8-3.9s-1.8-3.9-3.9-3.8c-2.1,0-3.9,1.8-3.8,3.9
					c0,2.1,1.6,3.8,3.7,3.8C100.8,40.8,100.9,40.8,101,40.8 M92.3,40.7h1.1l2.9-7.5h-1l-1.9,5.1c-0.2,0.6-0.5,1.3-0.5,1.3l0,0
					c0,0-0.2-0.7-0.5-1.3l-2-5.1h-1.2L92.3,40.7z M82.8,42.8c1,0.1,1.8-0.7,1.9-1.6c0-0.2,0-0.4,0-0.5v-7.5h-1.2v7.4
					c0,0.9-0.3,1.3-0.9,1.3c-0.2,0-0.3,0-0.5,0L82,42.8C82.2,42.9,82.5,42.9,82.8,42.8 M79.9,40.7H81v-7.6h-1.1V40.7L79.9,40.7z
					 M75,40.7h1.1v-6.5h2.3v-1.1h-5.7v0.9H75v6.5V40.7z M67.7,36.4V34h1c1.1,0,1.7,0.4,1.7,1.2s-0.5,1.2-1.6,1.2H67.7z M66.7,40.6
					h1.1v-3.3h0.1c0.5,0,0.6,0,1.4,1.2l1.6,2.2h1.3l-1.9-2.5c-0.2-0.4-0.5-0.7-0.9-1l0,0c1.1,0.1,2.1-0.7,2.2-1.8c0,0,0-0.1,0-0.1
					c0-1.2-1-2.1-2.2-2.1c-0.2,0-0.3,0-0.5,0.1h-2.2L66.7,40.6L66.7,40.6z M63.1,38h-2.8l0.9-2.5c0.2-0.6,0.5-1.3,0.5-1.3l0,0
					c0,0,0.2,0.7,0.5,1.3L63.1,38z M59.8,38.9h3.6l0.7,1.7h1.1l-3-7.5h-1.1l-3,7.5h1L59.8,38.9z M54.1,36.8V34h1
					c1.3,0,1.8,0.5,1.8,1.4s-0.6,1.4-1.9,1.4L54.1,36.8L54.1,36.8z M53.1,40.6h1.1v-2.9h0.9c1.3,0.3,2.6-0.6,2.9-1.9
					c0-0.2,0-0.3,0.1-0.5c-0.1-1.3-1.2-2.3-2.5-2.2c-0.1,0-0.2,0-0.3,0h-2.2V40.6L53.1,40.6z"/>
				<path class="st6" d="M190.1,39.1v-4.6h0.7c1.2-0.2,2.3,0.6,2.5,1.8c0,0.1,0,0.2,0,0.4c0.2,1.2-0.6,2.3-1.8,2.4
					c-0.2,0-0.5,0-0.7,0H190.1z M188.1,40.7h2.6c3.2,0,4.6-1.7,4.6-3.9s-1.5-3.8-4.6-3.8h-2.6V40.7L188.1,40.7z M184.1,40.7h1.9V33
					h-1.9V40.7L184.1,40.7z M177.1,40.7h5.1v-1.5h-3.2v-1.7h2.8V36h-2.8v-1.5h3V33h-5V40.7L177.1,40.7z M168,40.7h1.9v-3.2h3.3v3.2
					h1.9V33h-1.9v2.9h-3.3V33H168V40.7L168,40.7z M163.5,43.1c1.2,0.2,2.3-0.7,2.4-1.8c0-0.2,0-0.4,0-0.6V33H164v7.5
					c0.1,0.4-0.1,0.9-0.6,1c-0.1,0-0.2,0-0.4,0c-0.2,0-0.4-0.1-0.6-0.2l-0.3,1.5c0.4,0.2,0.9,0.2,1.3,0.2 M159.7,40.5h1.9V33h-1.9
					V40.5L159.7,40.5z M153.8,36.2v-1.8h0.8c0.9,0,1.3,0.3,1.3,1c0,0.5-0.4,1-0.9,1c-0.1,0-0.2,0-0.3,0h-0.8L153.8,36.2z
					 M151.9,40.5h1.9v-2.9l0,0c0.5,0,0.9,0.3,1,0.8l1.4,2.2h2.2l-1.4-2.2c-0.3-0.4-0.6-0.8-1-1.2l0,0c1.1-0.1,1.9-1.1,1.8-2.2
					c0-1.5-1.1-2.2-3.1-2.2h-2.8L151.9,40.5L151.9,40.5z M145.9,40.5h1.9l3-7.6h-1.9l-1.5,4.3c-0.2,0.6-0.4,1.2-0.4,1.3l0,0
					c0,0-0.2-0.7-0.4-1.3l-1.6-4.3h-2.2L145.9,40.5z"/>
			</g>
		</g>
	</g>
</g>
</svg>
