<?xml version="1.0" encoding="utf-8"?>
<!-- Generator: Adobe Illustrator 22.0.1, SVG Export Plug-In . SVG Version: 6.00 Build 0)  -->
<svg version="1.1" id="Layer_1" xmlns="http://www.w3.org/2000/svg" xmlns:xlink="http://www.w3.org/1999/xlink" x="0px" y="0px"
	 viewBox="0 0 799 449" style="enable-background:new 0 0 799 449;" xml:space="preserve">
<style type="text/css">
	.st0{fill:none;}
	.st1{fill:#E60000;}
</style>
<rect id="backgroundrect" y="0" class="st0" width="799" height="449"/>
<g>
	<title>Layer 1</title>
	<g id="svg_4">
		<path id="svg_1" class="st1" d="M93.1,295.2v30.2c0,24.6,8,46.2,40,46.2c23.4,0,33.7-21.1,33.7-42.8c0-36-29.7-49.7-56-65.7
			c-30.8-17.7-57.1-34.3-75.9-56c-18.3-21.7-29.1-48-29.1-85.6C5.7,41.1,54.2,0,131.9,0c87.4,0,131.9,58.2,127.3,138.7h-92.5
			c-1.1-25.1,0-59.4-33.1-61.7c-20.6-1.7-32.5,9.7-34.8,28.5c-2.9,25.7,10.3,38.8,30.3,52.5c37.7,24,70.2,38.8,93.6,60.5
			c23.4,21.7,37.1,50.2,37.1,102.2c0,82.2-45.7,127.9-129,127.9C38.8,448.7,0,397.4,0,340.8v-45.7H93.1z"/>
		<path id="svg_2" class="st1" d="M306.6,438.5V10.3h119.3c38.8,0,94.8,3.4,122.8,35.4c23.4,26.3,28,58.2,28,93.1
			c0,46.2-10.8,98.2-56.5,119.3c-34.8,17.1-75.4,12-113,13.7v166.7L306.6,438.5L306.6,438.5z M407.1,194.7
			c18.8-0.6,40.5,1.7,56.5-10.8c10.3-11.4,12.6-28.5,12.6-43.4c0-16.6-1.7-41.7-18.8-49.7c-9.7-3.4-23.4-3.4-39.4-3.4h-10.8
			L407.1,194.7L407.1,194.7z"/>
		<path id="svg_3" class="st1" d="M771.9,269.8c-12.6-12.6-28.3-19.3-45.4-19.3c-14.8,0-24.7,4.9-31.3,8.2l-0.2,0.1l-0.3,0.1
			c-1,0.5-1.5,1.6-1.1,2.7l3.9,11.9c0.3,0.9,1.1,1.5,2.1,1.5l25,0c1,0,1.8,0.6,2.1,1.5c0.3,0.9,0,1.9-0.8,2.5l-20.2,14.7
			c-0.8,0.6-1.1,1.6-0.8,2.5l7.7,23.8c0.3,0.9,0,1.9-0.8,2.5c-0.8,0.6-1.8,0.6-2.6,0L689,308c-0.8-0.6-1.8-0.6-2.6,0l-20.2,14.6
			c-0.8,0.6-1.8,0.6-2.6,0c-0.8-0.6-1.1-1.6-0.8-2.5l7.7-23.8c0.3-0.9,0-1.9-0.8-2.5l-20.2-14.7c-0.8-0.6-1.1-1.6-0.8-2.5
			c0.3-0.9,1.2-1.5,2.1-1.5l25,0c1,0,1.8-0.6,2.1-1.5l3.9-11.9c0.3-1-0.1-2.2-1.1-2.7l-0.3-0.1l-0.3-0.1c-6.5-3.3-16.5-8.2-31.3-8.2
			c-17.1,0-32.8,6.7-45.4,19.3c-16.8,16.8-26.8,42.8-26.8,69.5c0,55.1,49.8,99.9,111,99.9s111-44.8,111-99.9
			C798.7,312.6,788.7,286.6,771.9,269.8z"/>
	</g>
</g>
</svg>
