<?xml version="1.0" encoding="utf-8"?>
<!-- Generator: Adobe Illustrator 22.0.1, SVG Export Plug-In . SVG Version: 6.00 Build 0)  -->
<svg version="1.1" id="svg3148" xmlns="http://www.w3.org/2000/svg" xmlns:xlink="http://www.w3.org/1999/xlink" x="0px" y="0px"
	 viewBox="0 0 2222 2500" style="enable-background:new 0 0 2222 2500;" xml:space="preserve">
<style type="text/css">
	.st0{fill:#262B6A;}
	.st1{fill:#F47621;}
</style>
<g id="layer1" transform="translate(-257.719 476.432)">
	<g id="g3193" transform="matrix(4.8764 0 0 4.8764 -949.02 -2516.114)">
		<path id="path70" class="st0" d="M321.6,418.3l4.2,40.5c0.7,7.9,2,17.8,3,28.6l2,20.2c2,20.5,4.2,40,4.9,49.4c0.2,3.2,0,8.1,0,8.1
			s1-4.7,2.2-7.9c1.5-4.7,4.2-12.6,7.2-21.7l0.2-0.5c6.9-20.7,16.5-49.4,23.5-70.6L321.6,418.3L321.6,418.3z M458.1,418.3L448,444.5
			c-0.2,0.5-0.5,1-0.7,1.7c-0.2,1-1,2.5-1.7,4.4L408,548.9c-10.9,27.9-23,58.8-35.1,89.4h-94.6l27.2,26.9h35.3
			c34.8,0,60.5,7.4,78.8,19.5h0.2l37-96l-11.6-83.2H489l15.8-41L458.1,418.3z M519.6,505.5l4.2,40.5c0.7,7.9,1.7,18,3,28.6l2,20.2
			c2,20.5,4,40,4.7,49.4c0.2,3.2,0,8.1,0,8.1s1-4.7,2.2-7.9c1.7-4.9,4.2-12.6,7.2-21.7l0.2-0.5c6.9-20.7,16.5-49.4,23.5-70.6
			L519.6,505.5L519.6,505.5z M656.4,505.5l-10.1,26.4c-0.2,0.5-0.5,1-0.7,1.7c-0.2,1-1,2.5-1.7,4.4L606,636.3
			c-10.9,27.9-22.7,58.8-34.8,89.4h-94.8l46.9,46.2h94.8l84.9-220L656.4,505.5L656.4,505.5z M433.2,695.6
			c20.5,20.7,27.2,50.1,25.4,81.2C454.7,845.7,410,885,347,885h-86.4l46.9,46.2H394c63.2,0,107.6-39.3,111.6-108.1
			c1.7-28.9-4-56-21.2-76.5C481.6,743,440.6,702.8,433.2,695.6L433.2,695.6z M351.2,719.8c-5.7,0-10.4,0.2-10.4,0.2l-8.1,109.9h9.9
			c17.3,0,28.9-6.7,35.8-24.2c6.9-17.8,11.4-55.1,1-71.8C370.3,719,356.9,720,351.2,719.8L351.2,719.8z"/>
		<path id="path54" class="st1" d="M247.6,418.3l12.6,89.1c8.1,57.3,18.3,130.9,18.3,130.9h94.8c12.1-30.6,24.2-61.5,35.1-89.4
			l37.5-98.3c0.7-2,1.2-3.7,1.7-4.4c0.2-0.7,0.5-1.2,0.7-1.7l10.1-26.2h-74.3l-7.4,22.5c-5.2,16-21,63.5-31.4,94.3l-0.2,0.5
			c-3,9.1-5.7,16.8-7.2,21.7c-1.2,3.5-2.2,7.9-2.2,7.9s0.2-4.9,0-8.1c-0.7-9.4-2.7-28.9-4.9-49.4l-2-20.2c-1-10.6-2.2-20.7-3-28.6
			l-4.2-40.5L247.6,418.3L247.6,418.3z M445.6,505.5l12.6,89.4c8.1,57.3,18.3,130.6,18.3,130.6h94.8c12.1-30.6,24.2-61.5,34.8-89.4
			l37.8-98.3c0.7-2,1.2-3.5,1.7-4.4c0.2-0.5,0.5-1.2,0.7-1.7l10.1-26.2h-74.3l-7.4,22.7c-5.2,16-21,63.5-31.4,94.1l-0.2,0.5
			c-3,9.1-5.4,16.8-7.2,21.7c-1.2,3.5-2.2,7.9-2.2,7.9s0.2-4.9,0-8.1c-0.7-9.4-2.7-28.9-4.7-49.4l-2-20.2c-1.2-10.6-2-20.7-3-28.6
			l-4.2-40.5L445.6,505.5L445.6,505.5z M340.9,665c-20.7,0-54.8,0-64.7,0.2l-2.5,35.6c-1.5,21.7-5.2,73.8-8.1,113.3l-5.2,70.9h86.4
			c63.2,0,107.6-39.3,111.6-108.1C462.1,717.8,434.9,665,340.9,665L340.9,665z M351.2,719.8c5.7,0,19-1,27.9,14.1
			c10.4,17,5.9,54.3-1,71.8c-6.9,17.5-18.5,24.2-35.8,24.2h-9.9l8.1-109.9C340.6,720,345.6,719.8,351.2,719.8L351.2,719.8z"/>
	</g>
</g>
</svg>
